<mxfile host="Electron" modified="2024-10-11T03:32:17.974Z" agent="Mozilla/5.0 (Windows NT 10.0; Win64; x64) AppleWebKit/537.36 (KHTML, like Gecko) draw.io/24.0.4 Chrome/120.0.6099.109 Electron/28.1.0 Safari/537.36" version="24.0.4" etag="iXNZNzfQW2aRHhhENGEx" type="device">
  <diagram id="ObOTWNy7gv9DGJwPNkIA" name="Page-1">
    <mxGraphModel dx="1621" dy="1223" grid="0" gridSize="10" guides="1" tooltips="1" connect="1" arrows="1" fold="1" page="0" pageScale="1" pageWidth="900" pageHeight="1600" math="0" shadow="0">
      <root>
        <mxCell id="0" />
        <mxCell id="1" parent="0" />
        <mxCell id="MAz7pOJ0-4VEU98HuX7n-26" value="" style="shape=image;verticalLabelPosition=bottom;labelBackgroundColor=default;verticalAlign=top;aspect=fixed;imageAspect=0;image=data:image/png,iVBORw0KGgoAAAANSUhEUgAABBoAAAENCAYAAAChNwbbAAAAAXNSR0IArs4c6QAAAARnQU1BAACxjwv8YQUAAAAJcEhZcwAAFxEAABcRAcom8z8AAK/FSURBVHhe7P0HVFVLvu4N93i/8X33vu+57z23T+g+3X26d+qdg25zzjkHzCIoBsyKCTFhzopZMYNiQESRoCBRQIJkyTnnDJJ5vllzrQWTZS1Y4EJB/r8xng1zVtW/as65lpt6ZoU/pOUVIq+iGnnvqkikrq3yTiBeuz+meG1SFq9ce4hXt7J45dpDra1XOX97StP18+KpEq88kzp5VElalideGWXxyjHx8qpSW8t9LEnbJ5VyHulxW6QcvyXxYiiLV46Jl7c5qSorPS+VNE9r1NY46pZrKf1zl/QeNSdeWVVqrqxy2odIGpdEIn1+aut3vi1l2qIPjd/G8vnvqpGaV4A/NLlQEqkri/NF6XDitftjidcennhl20O8upXFK6dptbZeXn5NiVefsnjl1BUvnlS8MspqbX6FpOV44pXhiVdWIV5+VWpLmZakqZiKODypyqt8viVJYzYnXtnmxIvBxMvbnFqK0VyaqjwK8fK2Ra2Jqcl6P6aUr7Gt1yGNo0q8cm0RL3ZrxYtLIpE6l3jf6Q/5jkvjScXL21nU7HVUk9FAIjXovS9IBxSv3e0tXjuaEy+GpsWrlydeWU2JV59Crc2vCfHq5IlXtiXx4iiLV05Zrc0vlbSssnj5eeKVVYiXX1ltKdMafWjsDy3fGknrUiVeOal4ZZh4eZsTr8yHxmRSjiEVL7+yeOWk4pVRpbaU6QiSXq+i/crHrZG0bEvilVdXvHitFS8uiUTquGru+ytN46WrK+U4HxLrQ9TWuqXtVhYnPxkNJJJCnC9IhxOv3e0tXjuaEy+GJsWrU5V45TWl1tbHy68p8epTJV75lsSLIxWvjCq1Nj+Tcn1S8fLzxCvLxMvLU1vLqStNxG6vtjFJ29eSeOV54pVl4uVtTqrKqjqvrqTl2xKntfm7mj70/kifC0+8MuqqtfF4+XnilSWRSB1D6nxP6bv8vpq5J1yjIbctYgGFn2J54XfpMYnUKST/UnRo8drdnuK1oSXx4mhKvPqaEy+GJtTaunj5NSVefc2JF6M58WJIxSujKfHqU4iXX5V45RXi5eepLWXUkSbjtnf7mhOvbHPixWDi5W1OLZVXFVO5nKp8pPa7Px8aU9Gu5sQrp47aEke5DE+8ciQSqWOoI35PO+u/HfJ2NzEamGFQWFGN8qpqlHFVwzknEytTKpd4XF0txmIxpXWQSB1WvC9KRxOv3e0hXt3qihdPU+LV15x4MT5EvDoUam3+DxWvvpbEi6NKvPJS8cpoWrx6FeLl54lXVqHW5mfilfkQtSU2r0xryqsraT3NiVdWIV5+hXj5mxOvjHJMXh5l8cpIxSvTnDQRoyOrva5NOa5UvPw88cpKxSvTXuLVzxOvLIlE+nRq6/dTWk5ZvPxtkabjtVZtqVvRZkHvGQ3FldWoq61BrUJ1kt9rayW/S1RTA6AOXkkF8EstAOprUS+UKxFikdFA6jTifVk6mnjtbg/x6lZXvHiaEK+u5sSL8aFqbT28/JoSr77mxIvRnHgxpOKV0bR49TLx8vLUlrLN5ZWmqcrTWrUljqbqVpYirjrileeJV1YhXn5Vaq6sqvOqJM0vFS+vOvqQsqQPk/Iz1IR49agrXjypeGVIJFLnFH2vm5dwb7hGAzMOahSqlapW6VguudFwNyQDVuEZotHAzAoyGkidSrwvSUcTr92aFq/e1ogX80PEq6Ml8eJ8qNpSD6+MJsSrqznxYjQnXgypeGXaQx9Sr3JZhXh5pWoprzS9uXztpfaqU3o9zYlXtjnxYjDx8jan5so3F085v+JY+XxX0ed47bzrkV7nh0oatz3Fq1tT4tVHIpE+TPT9alEtGw3vmQ1KkudhRsO9sEw8jshU22jIr6hGYVVtgwoEsfNFNfWoFiIWVNbIGsopV1BZK/5UTmsPvddO1i5OPqneCe1n4qW1Vmy9i9I6oEqI19I1s7ysjez+sftIa2W0QuxedXTx2q1J8epsrXhx2ype/JbEi/Mh4tWhEC+/VLwyHypePS2JF4cnXlll8cq1l9par7Scsnj5mdqar7m8qtSWctL6WltWHSnH54lXTiFefiZe3raoLXGVyyiLV0ZZbSnTkfW5XU9zUr7WtooXuz3Eq1vT4tVLIpFE5b+rRoXQf6pVQ6xP1tBP7SSqFNpcVi/0TTlpUpULeVheXloTqfFvS5uMhrq6GtTX14rTKtpiNIj1CE+pROg8pxeWIK2gGOmCskvfobS2Dp5vgrB6w0bEZ2SjqLruvfJMH8NkYO1k9ZcIbc0oKpW1U2hvbnmlkM6vn33omE5fuIRzV66qbUyoErtO1gYbRycY7tqD1PwiMSYvL1OJcP/exiVi07bt4n0sE455+Ugccb4gHU68dmtKvPraKl78togXuyXx4rRVvPhMvLw88cq2RspxpLHVkTSWOuLFkIpXpj3VlrqlZdQtq05eaR5l8fJrWu1Vl/Q6VIlXTlm8cjzxyipLOa+0vHJac2pLGWW1tRxJM1J+hlLx8kvFK9NW8eJ3VPHa/7HEaw+J1AnEXmDnllXi0vWbmDpDS9DMZrX30BGk5hWiUCjHi9eRlF9RI16b4c49sLJ1EM0UZqq8l09utDx8aiv2ORXnlPM1SI3vfquMBtTXCdXXiz9Lq6pQWVPdmMaMhrdZeByZ1azRwN6wvxNCpOYV4LjJWYwaMxajx43HSOHnkOEjEBaXAGv75/jPP/0JobEJKGHOi6R8SW09nrt5oEevXnj6wgnl9fVN0jWpItEgeIcL165j9NjxGCO0c/jIUVi1boNoOPBMEMWoh2laszB3wUIxT3PGQEtiRgNzn46dOYuff/kV8Zk5KK5Rfc1sFMUr/0B8/fU3ePDERhzZwMtH4kjpy9EhxWv3h4pXz4eKV09rxYurjnix2qoPic8r2xrxYrZGvJjNiRdDKl6Z9lJb65S2VypeXqnUySeNJxUvr0KtyduSPrS8KmmibUyKOC2JV1YqXhmpWirDOyc9T+o8Un6GrREvXkvixWmteHE/hXht+xjitYVE6gSqFPpaTh5e+OO//ZvQHx2O+YsWYdbcee+J9e0mTpmKf/mXf8HFazfE0Q28eB1JzCwoqqrDSqH/+tU/v4XNcyfZiAz20l6ep6CiRuwzWtna48tv/om1BptRXF3fvNGghtQyGkRzQaBUSHOOz8N+j3isfR4Nn9RC4Wwd6uvYbQYehLdsNJRW1yI7Nw+Tp8/AoGHDEZmUgpTcfESnpIsjACISk2Hz4iX++d13eBufhFKhatbZVoxgKK6pg7vfG2gJD/ulpzdK6+oa0qVieZWPldVcOhuFUF5dg+17jNG9Rw+8CY9EWl4+QmPiYXrLDEk5+Q0GgjSOwlhYoKOLJctXiKYAO8erQ7ksL421gxkNZy5fQb8BA5GQlSvGVJW/XHgO3oEh6P57Dzy2cxA/SNJ0hZTL8c53OXG+IB1OvHa3RbzYmhSvztaIF1Nd8eK1VW2NzyvXGvFitka8mKrEK68sXrn2UlvrlZZTFi8/U1vzNZdXIV4ZJl7eltTWci2pLe2SlpGqrfmk4uWXileGiZdXKl4ZZambryOqtdfaWSS9rraIF7Ml8eK0Vbz4H1O8NrWneG0gkTqJWG/X/MEj/Ndf/gL/sAjxzT7rfCurVOjypuUXo3fffthitFPI1fGNBiZmNOSUvhPNhq//+Z3Y12bGAjMSmFh/8TEzGb7+BmsMNiO3rOLDR2sI/y6oNBqq5SYDmyLxNrsERz0TMd8qFNMfBGGXSyw2O8bg4dtM8QYXVVQhvqAcpoFpsG7GaGDDUti55avWYLrWLNk2mKy80BFnYr+LF2r3XDQamPnA5oiw9QlYGut0s2kLbCoDg029YMdlwu9M7Dw7x/Kyzjj7nZ1jx+ynoh35QhwWk4nlYR155VEHrHxqXhH6DxwkToNgsDay8wrzg10bK8fKi3UJYiMKWL75i3SwVH+leMzqZ2L1NbRBKN/QBqFtrP2FwodAWj87x+piHwQ2qkJhNLAyivvRkF8eg51XNhrE6xXiSK+XrYfB2s/aytqoaP+HjL7o9OJ9STqaeO1urXhxNS1eveqKF6814sVsq3jxmXh5FeLlb614cdUVL15z4sVQiJe/vdWW+qVl1C2rTl5pHql4eaXilWHi5W1ObSnTWrW2Dun1qFJzeXmxmsuvkLScstTNp0ptLfe5qSPeB+mzba148VoSL46yWpNXHUnrJ5FIn0TMaLhr+Rh//8c/8OZtZLNGQ3pBCQYPHSZOL2Dw4nVEsbYXvKuQmw3f4omDo9hPZHpkY48vvv4G6zZtQaHQr2d5eTFaq2ZHNNTX1wkNqsKyp+FYaRuJRxFZSCxkXVngRWwOrITjIuGm73ONw4bnURh9JxB3QzOE1Dqu0cA6uD6hb9G9Z0/Yu7iJw02UFytknd7H9i/w0y+/wsLqCWbNm4+xEyZi8bIVohPDRjAERERDe/ES+IWGCx3sOhgYbsfBYyewces2jJ80WUzLKyzC3oNHMGHyZEycOhUOru4or6sXPiTVqBDaceWWGUaPn4BxQv4tRjuQWVwmLp6oaIfY4S6vhNacuZg6UwupOXnih5CZAuyamErk+fcdPoZxEycJdU3B6vWyaRWLly3HIqEdJhcvY6JwftiIkeIHmC2wwQwCFsfCylq4tgliG9cZbEZyboFoMLA7zEZzKGJOmT5DuLat4tQStkZDoHD9ixbriV8Edj+YTG+ZY8OWrSiqrhXvi8JoYCZFlXDd502vYQy7XiHmJkMj0b2qEc7bvHCC3gp9HDt9RhxlYv7wEd511XUdlL4cHVK8drdGvJjtIV7d6ogXqy3ixW6LeLEV4uVn4uVtrXhx1REvVnPixZCKV6a91NY6pe2VipdXKnXySeOpk5+JV4aJl/djSJPtUI7VnJTLSONIzzen5vLzzkvzkzqmpM9LWbz8PPHKqhKvfHPixZCqLWVaEi8midSBxeb8sxfB6qqsTug7lfFjdQgJ30PRaHgkMxpYP4r1xXh52XQC9iJ60JChnc5oYM+AGQj57yqhv2Y9vvnuezx39YDdS1d8/e13WGsgMxlY/1ZTz6tZo4GtxZBcVA69Z+EIzy0VbyYzEVBfj0fhmbCJyoal8POgexzSSipxxDMJFqHp3BEN7A0+e2h3LK3Qo2cvRCaniW/QpfUzMaPhmZOzOEdmrNAx9gkOhZOHJ74VbgZbeEMoArfXfsIH4Qs4eniJjtMv3bqLxw7OruKHo0///vjH3/+O3fsPIjI6SpxnMnrsOCRl50K4dzh76Qp69ekDR1d3+Ie+xXih880cHNZGxc4XTKVCR9wrIEj8MP31b/+NZ47O4sIfzPkpEK6toKxcHLkwatw4sZ0B4ZGiscBGHeivXYf/+I//FI+jhDZs27kLX3/zDYKjY8UP83Xzu0Ib+sLawVFoY7RoKOjqLQNbzDEkOg4DhTr3HT6KsKhoWNk54MuvvkKffv1FQ8TF2xdffPElXLx8xPvF7sHWHbswYNAg0cRgQ36Y0cDWumBmzlmhDczceen+Cn5CO0eMGiOaDbXCc7x9/yH+8Ic/wGCrIXyCQpAotF2csyN5Jl1GnC9IhxOv3eqIF6s9xWtDS+LFaat48VsjXkxl8cox8fK2Vry4LYkXR5V45ZXFK9deaku90jLK4uVXSN286uaTSrmMQry8CqnK11I5dSWN35qYyuWkUiefNI+yePmlaksZJl45UscS77kpxMuvSrzyPPHKqhKvvFS8Mky8vK0VLy6J1AHF+hls6oCljR0ePnmmll75BQr9yw66Q4P8O9gVjAYmcSdDoXOY964SBkJfkI1iYNMltu3cLY7YKBFuhCZNofeMhiKhA81MhtpadsuBnLJKrHoehSjRaKgTz9fX1YlGw7PobJiHZMDEJ1FIq8f1wHThfJY43UKV0XDz7j3x4aTI395L62diHWdr+xdix5qtwSC+kRfEbsCY8eOF3yB8YAPw48+/wFnoaLOY/QcNxlL9VeJKEiwv66B//+NPiExKZdnhKnTM+/TtJ04pSMsvEjvxt+49ENMYtk4u6NW7D4KFDj6bYiBtDztm5gLbBYM9iGEjRyE6NlbswN95aIXvf/gRQVEx4geU5VVMw2CjKiZNnSZO7WB5k3PzRYPF3PKRELcCg4U2XL55m1Uvwq7p519+QUJWjjjnZ9qMmaLpoXADjfbsFQ0UNlrC3feNuDCku4+/eP3snu3adwCjxo5tYjTYvnQRvwwDBg+GxeMnQi4ZbKRD3/4DkCJc1z3h/J/+/GdxdAQzcWjqRAcXr93qiBerPcVrQ3PixfgQ8epQV7x4PPHKMvHytla8uC2JF4cnXlll8cq1p9pSt7SMsnj5FVI3r7r5pFIuoxAvr0Ktzd9atTW2cjlltZRPGktZvPwK8fIz8fJKxSujLHXzkdpPys9NWbwyPPHKtqd4bWiteHGbEy8GifSJxdbKi03NhLbuEszTXqSWzly8ggqhHC/eJ5f8+9ZVjAam/Hc1Yp+PmUX/4//+f/B//8u/4InDC7Ef/aGLPyqLazSgTujg1lTDPj4Pt0MzsNwu8j2jwSo8Q1yPIausEmscIqD1MARLn75FRE6JLF/N+1Mn2Jv3p88d8ePPP4s7SrBOubR+JnHqhN1zfPv994hKThM772yawcHjJzFi1GiUCx9Utm2jwmhg6SNGj8H+o8fF+GwdgmMmZzF0xEhkCJ1y1slnhsVv3brDQ+jMsykJbF7KmPETMXfhQlFsSsF//Od/wv9thOyDpdQmto4BIyQiEpOmTBU69OOEdtTC+OBhcapGVkl5g2nC8rLOOlsMctnKVWLbmZhBMGDQYFwzuyO2gRkFYydOxHzthZgtrmA6DV98+SW8AoIxc/YccToHK8disft06cZN9Bs4UIhTDDcff7G8h++bBqOBjd5QNhrYdJHI5FTRSGAjJti1zhM0asw4fPX1N+IaGOxL1U3IG52aId475WvvUuJ8QTqceO1uTrwYH0O8tqgSr/yHilePuuLFUxavHBMvb2vEi9mSeHF44pVVFq9cRxSv7Uy8vK0RLyYTL69UbSmjUFvLtaeU29ScePlbE0uaVzm/OudJnV/SZ6vuM+aVaS/x6m+rePF54pUlkTqA2Ntu9uab9a9Y70gdsX5Kh546IUg0GuRrNLRoNOR3XqNBMe2FmQz//P4HcYT7hi3b8N2PP4lrNrA0TZoN7xkNzByora3FSe9ETH0YgtF3gzHcLBDJxeyWKz4ywLOoLDwMly0GGZtfCquITNGMYDtQMJOBZzSwOTrhQiebmQinzl8Uy7KRDop0ZhqwEQmKxSAVu06wDveBo8fFhTcKKmrFzrjUaBg+ajT2CJ1+hdFw5JQJBg8bLo5EYF8Ep1de6Nb9d7zyD0BEUip+694dx8+cw0t3d3E9CDY/xSswWJyWIG0P67SLCycKP9nIBOFX+Ia8xVdffS22bf/RYxgweAhyyiqENsqMBnaXmNmg2HWC/c7az0ZSsMUc2c4aMWmZ+OW3bmI7nYQ2WDu8gJ2zKwKjYpBZWCKaAmy9CRaLjWpgX1CTS5cbjAa2feVPwvV7Cj9ZHvah2HfkmLhFaBOjwcUNUSnp+E6432wKh6P8el+4vYKPcB3vqmtw4+49sS1s9AcZDZ1AvHZLxSvzKcRrG0+8spoQr66WxIujLF45hXj5WyNezJbEi8MTryxPvLIdSbw2K8TL31q1NWZryynnl4qX/2OpubYopymknKZOGYWkedUtw8QrR/r40uTzkD5fqVqTtz3Eq/9DxKuDJ15ZEonUblLLaBC+m+zFcmc1GphBxPrZzGT48mvZFpalQv+1WOir6q9lW19+J45sYLMJxGn0nBit1XtGA+t8huWUYJV9JNKKKxCZW4aFT8IRmcdGKgDReaXiSIYL/ini4pBsyoTMfJD9VKzvwDMaFNMn2BoJ333/g3ChtsKRDBaBjXLIKCwSp0588+23XKOBbbXBjIYffvq5wWhg0xmUjYZBQl6p0cBGNLApFHklZRgvdOTXb9rCqhVhZkJEYgqySysajAbWYWcfJLatJftQKTB7YCkaJWwdhtdBofjmn9/ilsV9eaosDjMsFuoufs9oYNMVWIef7dLBFphcvX6jvJTs+plBwB4uGynB8rIRHYz0gmJxTQmmjKJSxKZn4a9/+5tQr2z6B7vmEWPGiAs9KowGZqw8c3yJ3OJSca2L7buNxbyMopo6hCcki/fmmvld/Pzrb2Q0MHG+IB1OvHZLxSvzKcRrm7J45TQlXn3NiReDJ15ZJl7e1ooXtznxYqgSr7yyeOU6mnjtVoiXn6m5NGWpG1Mq5TLqlGtLmY+h5tojTZNKOV2dMkzSfFLx8krFK6MsdfORPkyteSYtSRGrLWpN+bbUKS3zoeLF54lXlkQitZuY0cC2t/zHF1+I/U8Ge9GrLJaP7eY3dPgIcX08Bi9eR5NiC0srWweZySD0g9mGD2xNBtZPzS2rxMp16/GV0K9lsw9YXk2MbOAaDZG5pVhhF4Hk4nfwSy+Cvl24+NY+Lr8MCx6HYPL9IAy86Y9HbCtL1DcYC+ynQjyjgYlt4chGB5w3vYpfu3XDspWrsWaDAZavWi0+tPjMbPEN/1+EjnRYXGKD0cCmBvTu01c0Gtgb/S++/EpcDJKls5EC2/fsFd/ss87y/iPHxIUWU3MLxA78czcPfPvtd+JUAnYcEBQsjgiYu0AbBgYG4s4WbEoD2/KDddRZO1lc9kGbMGkKtObMwzohH1unYdSYsTh/9XrDlIbLN26JHfWVa9eJ18EWlWRrH8xZsBALFuk0MRp+Ezr/R0+eFj+kvqFvxa0zZ82VxZ67UFuc8sHan5iVI5bv3a8/NhpsxKZt28W83Xv0EHemKK+uFRdvZIaHwcaN4o4Vv/fshZGjx4j3h426+O677xuMHHdff6FsT7GOTUJds+cvwPU7FqLRwHbf+Pqbf4oGCRkNnUC8dkvFK/MpxGubVLwymhSvzubEi8HTh5RVJV5MdcSLpSxeOVXile9oao9282IyqZtPKuUyqtTWcu2t5tojba9yHuW05sQrpyqONC/p8xbvuUvPqZI0RnNllPM1l7c14sVtD/HqViVeeRKJ1KxY34wtXPkv//Iv4qh7R3cP2Lx4+Z4cnN3ENfr+8te/Yve+g2I/ixevo4kZCg+E6/tS6POt27RV6O/KF4WUp8t2o5BtffmV0Gd+ZOsglpHGaIu4UydqamtxNSAFS2zDscgmHE+j2BSJehzxjMdRzwRx5dCDHvGwCEsXz0sNhpaMBrbaJevMszECrAN8SeioX7x+U/xpZWsvdMrrEZeeJW61wdY1YHmZgqJixbUW2IgD1tlm22OKOyQIac5erxEYGS10smV52aKOLC/bDrNIOGajD9j0CLbQYkGV0D6hbrb4Ietks7rZlo5s9EOx0IFXtJPFYWsvMJPC9LYsHxNrMzM0WDprC4vFRkxckqd7vgkU09huFWzxSZaHHTOjxtHDE6Gx8aITxlyxkJh4mMrbcNXsDtIKisX2sd042OKRbMFKlsYMkti0TOGaXottKhHaycyau1bWuCCksw9OZFIKXLx9kFdRJV4Lu15WpkiIx0Z6+IWFi9fL8rNtQ1ldJUI7IhKTxfhspARrp/RZdTkpfTk6pHjtlopX5lOI1zaFePk1LV69zYkXg6e2lGlO0nitES+WsnjlmhMvRkdTe7RZ3ZjK+ZTFK8PTh5TVhHj1K8TLL5WqvNLzzam1ZaT5Se2vD7nnH/LcmisnjassXv7WiBezteLF1bR49X6oePWQSF1YJTV1iEvLwnQtLXFtO7aWHduYQFlfff21uBNh3wED4BMchrKaem68jiQ2ZYKNWBg7cRJWb9gk9JfZ9TbdwpL9XiqcY1tfrlizDpOmzRDLMUljtVbvGQ1se0u2zkJldTWCMovFbS3r6mtRI5w75JmAs/4p4kKIJj5JsImUGRDKJkO1/CfPaGioS6hcMQRFITZMg51nowDY72LHlzVUyM/etrMOM/udjSZg6eIOCUK6YsoEK8vSWUednWOdfHaO5WPmAPvJjpnYFA5FvWy6giJN0T4mVp7FkbaRtVmah0maR5zTI5xjPxW/M7FYrA3i8BR5PWxEhDS2tA1suobiPKtTcf3Sa1KkiyM5hFgsnZVl942dY/dREU96vYp7x9JYPSwvi8vydWmxe9XRxWu3VLwyn0K8tjHx8raHeHWrEq+8KrW1nCpJ46krXhxl8cq1JF6cjiZ129ua65HGbK6ccj5l8cooi5dP3bKakrTNUvHyqitePJ5aU0aalyd185HU14fcT8XzUI4hPd+cpGWaU1vL8aQcq63ixdakeHV+qHj1kEhdXGxUOJuuHhQZI76QDngb9Z7eCAqMiEZiVh6KqpR20ujA3y1mNEQkpCCntEJc0JK3OCc7x9KyS94hMjH1vfS2iGs0sNEIdbVCj7hOUH2tbKeJ+joEZ5dgmX0ENjhGw0BQRvE70ZRQNhnUMRpIpA4nzhekw4nXboV4+T+VeO1j4uVtD/HqViVeeVVqazllSeO0RrxYPPHKNidejI4oTbZXev0txeXllYpXhide3taU14Sk7VaIl09d8eKpUkvlpOmkzqXmnqH0GSuLl78l8eKoK03Gkko5rqbVmrqkeVWJV45EIqGoql7cvKAlFddoZg2Djyk2FYKZKbw0qVgeTUybYFJpNDCjgP1s+L1WqLG+Vly/wTYmBxklFeKxwmBgUpgMZDSQOqU4X5AOp87S7k/dRuX6VYlXVlm8cky8vOqIF0sd8WIpi1euJbUUh5f+saXp9kjjNRdTOZ+yWiqjfF56/DElbZOyePnVES+WQurmk0pahqRZfep7LH3OUvHyqiNerNaIF7Ml8eK0l3j1t1a8uArx8pNIJFI7qInRwJQvqLBCtdhikdV1tSgTfvLSpWKxlOOTSB1WnC9Ih1Nnafenbp+0fp54ZXjilVWIl18d8WK1JF4cZfHKtSReHCZ18nwsqduW1rRVGrO5csr5lKVuGV6+jylemxTi5VdHvFgKqZuPSZqXJ3XzkVRLk/dQEetD4n1oDGn5togXsyXx4rSXePW3Vu0Vl0QikVqh94wGJjYKoTmpk4dJOS6J1KHF+YJ0SHWGNn/qNkrr54lXhideWYV4+ZsTL4Y64sXiiVe2OfFiMKmT52NK022RXl9zcZXz8aRuOV6+j6n2aIs0plRtzdecWpuf1L7SxPOQfhZa0oeW54kXU5V45VWpLWWUJa37Q9QeMUkkEqkV4hoNJFKXFOcL0mHVGdv8sSR9pjzxyqgSrzwTL29z4sVQR7xYPPHKNideDCZ18nxMabo96sST5lFHLZWVpn9MtUc7WhtTOb9CqvLyzpM6njTxrKSfB3XEi6EsXjlV4pVXJV55ZbW1HJNyfmkMEolE6sQio4FEUojzBSF1IvGeKU+8sqr0IWWlUo6jjnhxlMUr15LUiaGc51NI021R5/qkeT5UvPgfW5pui7rXJ83HU3NleGmkz0/Sz4M64sXgiVdW0+LVyxOvbHPixSCRSKROLDIaSCSFOF8QUicS75nyxCurSh9SVirlOC2JF0NZvHLqqKXy0jo+pTTZFnWvT5rvQ8SL/blInWuU3gueeGVInV+tfcbS/OqIF0NZvHKaFq9eVeKVVyVeeRKJROrEIqOBRFKI8wUhtUKf+j5Kn2Vz4pVVpbaWU5Y0TkvileeJV1YdNVdeGv9TS1PtUef6pHk0IV4dnUnqXEdz1ytN40k5P6nzSxPPmRdDKl4ZZfHKaVq8etui9oxNIpFIHUBkNJBICnG+IKRW6FPfS2n9qsQrp6zW5ldH0pjNiVdWWbxymhKvvs4sda5NmqetUo6jXEdnkzrXIs3TnFSVkZ4ndW5Jn6uyePlbEi9Oc+LFUIiX/0PFq6ctUjeuJuskkUikj6g/5Ar/IZFIgso6sDpqO6XtkoqXt73Fa4eyeOWUJfxR16r8qiStV13x4kjF8kjb1xax8qpi8OpsTm0t196SXlNzbeTla4tUxVKuj6fW5v8YUqdN0jzNSVUZ6fm2SBMxSKolfVYt3WvlvFLx8rckXpzmxIuhEC9/S1L8G6lKvHraIuV6eXmYlPMpi1eGRCKROoD+UFxZAxKJRCKRSCQSiUQikUgkTegPIAiCIAiCIAiCIAiC0BBkNBAEQRAEQRAEQRAEoTHIaCAIgiAIgiAIgiAIQmOQ0UAQBEEQBEEQBEEQhMYgo4EgCIIgCIIgCIIgCI1BRgNBEARBEARBEARBEBqDjAaCIAiCIAiCIAiCIDQGGQ0EQRAEQRAEQRAEQWgMMhoIgiAIgiAIgiAIgtAYZDQQBEEQBEEQBEEQBKExyGggCIIgCIIgCIIgCEJjkNFAEARBEARBEARBEITGIKOBIAiCIAiCIAiCIAiNQUYDQRAEQRAEQRAEQRAag4wGgiAIgiAIgiAIgiA0BhkNBEEQBEEQBEEQBEFoDDIaCIIgCIIgCIIgCILQGGQ0ECqprKxEckoaEpNSkJgoiP0kkUgkEolEIpFIXUvyvkBmVrbQS6iXdRbUoKCgAP7+/vDz8yN1Mvn6+oo/ExIS5E+zdZDRQKgkPSMLDx49hae3L3z8AvDa5w2JRCKRSCQSiUTqYmJ9AaeX7rCxdURtba28t9Ayr169wurVq3HhwgVcvnwZly5dInUSsedlZGQEExMT+dNsHWQ0ECpJTcuAxysf1Nap/48JQRAEQRAEQRCfH/n5hXB2eYXq6mr5mZbx8PAQO63JycmiEhMTSZ1EqampeP78uWg4tAUyGgiVMKPBy9tffkQQBEEQBEEQRFelqKgELq6erTYarl692mAysGH4pM4h9sycnZ1x5coV+dNsHWQ0ECphRoOnlx/q69Wfh0UQBEEQBEEQxOdHYWFxm4wGU1NTJCUliZ3X+Ph4UicRe2ZOTk5kNBCap2WjoQYVFRUyVVWjrkm2etTVyX9tFkmMikrUqlVGs0Q+O49z951RwrnMuqYXpXEqEpxx5MAhuCdXys+0I/V1wrOU/94MddWVDc+kqrpWttxPaQxuXjTB4+ACMU+HoLaq4XNTo8YHJyfEHqeO3Eey+v9vbJ50T+zfdRyuie/kJ5qhNgdWJjtxxjFGfkJ96tX7IqG6svF7VC2/HyUxL3HR5DxCOtBjIwiCIAiic0JGQ9cSGQ1Eu6HaaKhDZpgbDhoswPjx40WNG94fiw+YIUvRJ6pJgon+DOyzipCfUKYOGdE+OL11dkOM8WNHYODCjXBKZ0HKYWWsi6mbLVDMstdXoSAvGwXlNexIJNP1BOYt2YLXOU3bV5PkhHU6c3DNV73e1UvjyZiwzgQ57/XnquB2cjWW7LyP9yLl+8Bwvg5OOybLT8ipzsLtw2theO+t7Li2Anm5mSiuVASvhssRPWgtP4cc4ajqzRn0+70XLgez68rAyeVa0DvtDnFVDOGa87JzUfhOcc01eL5/LsYb3kaZ/ExreJfqhE2zdGH+tkJ+RomaQry1v4Kl88Y0PJPh/cbhnJNwjSVvsGT6GBg+TZFnViLfC8unzcAh+7atSts6apAX8hSbF8s/N+NHoc/MdXga2XyHP87mAEb0W4tANXwBtQi7hu7fDcIF3yL5iWaoicO20f/E2BMe8hPqE3h3OxauMEWW/FiZ6sJE2F3eiXmjFfdjNPqN24SXKTUo8b+A6WMm4VmqPLMSeZ6nMXWGLhySNOW+tB+FfmZYcfYhksR/EAiCIAiC+NiQ0dC1REYD0W6oMhoSXA5jyPdjYHzFDXkFBeK2NTkhdnhk74DUhhfztfA7Nwu/LzqMjCr5KQnpL05ieO+x2HTxZUOMgqy3uGFxE0+iWEe4Ei8v78aGUw4oZwVKQ2C4TAvbHyexI5Fk6/XoNnAmXqQ3bV911ENM6Psr9juxrnzLuB+dhzmGl5H7ntFQj0Kf0xg8fB6exiiNOMhyxOzufbHpQbT8hJyqFBxbNQ5zzvjJjtM9oa87Aqe8FL2jGvjdMMbm/TLzoiroCsYMHYGbYcxMyIHZ/s0wvvMGYlPeBWDNFB3stUtkRwK18DLdhtVnnqFNfeWqDJxZORpTd9kLd1eJ+gI8MtTCb8PW4r5vkux5CAqxMYdjQCzqCwOxRnsm9tqnyQsoURSM/Rs24dqrdPmJ9iPf/wbG9x6Bw3YRsnbmx+LR0ydwCy+R5+CT4HASU8dsQ4gKn6XVRJhjSO8JuBagRs+3JgHGM3pC67y3/IT6lEQ9wLxeg3E1RPwmNKEuPxhbZ/bCiHXH4Jcs/x4VJOCp2TMExpehMOAqtGfOxXMVj6Uo6A42bNoNz4xGA6+jUZjoh7tHV+L7//kH/GHKcWRo6vkRBEEQBNEqyGjoWiKjgWg3eEbDu8RnmDNgOIzdVLwilVCf9gLzh43AOf+mb3wrkuywaMgA7HkSLz+jBu/eYuviqdhm3Vhvis0W9Bs5Hy8zlIyGmMeYMawPjrjkys80j2g0GF0F9710bRZOavfEgotKHcRsZ2j3H4btVrHyE3KqUnF6wzQsuvhGdpztjaULB+Hka741UPLmsmg03AgulZ+RUB0M/fELsMdBxSiCNpBiuxcjJs+Di5IHE/pgDQYPW4HX+fITyuR5YdVCLRxwZHsnf0pq4bBnGn6ddkY20qUVxNufxLSx2xGuqU1U4u5haJ8JuPZGnRENbTcaIFyp6brxmLXVBk372Hm4v3oChunfQKH8jDI5nhexUEv4jqjnuXVAqnFv6+/464jF2Dh3AH7Q3Y+U9/0WgiAIgiA+AmQ0dC2R0UC0G+8bDXVwP6yFCfoXoKo/yqYOmK6eivWn2RDxWjwVOoUz9znKpgKI1MD9yHxM0T6K5q2KMnFEg8E5ZxTmBmHP/DH45z/+gm97j8Ysnb1gL5Ez7beh3xgdeCu/yE53wOwRvXHEjXW/ymBz2hCbL7o2dtJqEnFp83Kcd5CNFPA8vhA6W0/g2YNTmDp1KqZOGot5J21RLr/s5Kfb0X/GITSOpRBowWhYfPUt6lJfYNmMwfjiv/8dPw+agDlLLgkxqhF0e3+zIxoOWIagJDcAe6cMxZd//m9833cU5urvRJBwnQE3DLH6bOOIhqpcH+yfM0Ns94SxG2ATrngydSh4cxfztabI0sYYwD5O6KFVh2PjrGkwsoqT5xOojcPeMb2w9YHknDJ5r7FmkRa237GD6QY9IeZkjNE/DL9M+TAQ+YiG668yxcPIx8dx4Mx1WF7dKeSdgrGjN8ExKhNhducxR2jPlPETYWwdIlv/QU5u0BNs1poktldLexd8snmOQB1C7mzEbz1n4FE4x5wRqcUbs32YN5Fd+xSMW7IDrsk1yHc/i+kTduCJ/Q1sXCA8ZyF903GnhufMKAmzwtpFsjZMWWYEt7TGN/31lem4a7gCU4S0qVNW4PgeA/QfOh23QoU8JcJndP0m3PZpnOBQEmmDbSu3wCNDOKhPfM9oSH/zAKvGTxbrmrHgOELKZPeypsAflzbthuXTRzDSnQrda16IdTiDeVqr4SWZw1Mba4ExvefjYbzq8S253pexaOY83LWzxvolwudk8nisOmLRMMVJMaLBixkRQhsv7DmKc5ZWOKWvLXwPxmERW9MiKxl397DPmHAvp+zCq0yJ3VFfCrcbRpgwhd2TCVh60UX4hL9PqscVbDlnAWfrq9AX798EaK+5hVT57a2vfQf/h0cwfbKQJny25q84jrfi461FSpQfYsuA0peGGL5yG2KbH7hCEARBEEQ7QUZD1xIZDUS78b7RkIx9U3uKawhIO4hNqM7AmUVDsfjAS/GwwO8q5o6aAyfFi/C6FByYOxxaex1l0wMYFdnwe+UEhxdOeOUTjuxS1vsoxs1Vo9B94WUU1ZQhJfgJ9GaMwtKzLxEdm4oyoQ+aZrcdfXoPx+G7DnBwaJTt9V0Y2LM/TnqyHkkhTLQHoe8KczR0S6uCsbLvN1h2KVg89DmljZ4/9YCOqSuioqIQ5Xkbk/r3waxTbhBnfQidaMOZo7DPVdaJFmnBaNC5FCj8Xoh4zzuYNUXoxN/1R0xcFiqFiLabxqHPRGOwaLXBcqPhLbujydg+sQ/G7XJAtXDNqcGPMHfoZKy+7ISY+BThmmtgtW4gflxsIq7RUJfnAr2x/bD4mI3YbofTizG4zyK8zKtFffJTzB6vhaNPA8S055fM4REjs3aCLqzE5NXHkKiY0hJljmE9J+B2aDMTMopDYDD2P/HX75fg8WvhHgmdv92z+2LYGlPksQeZ/xKTfu+FjXKzwvfkbPz7//xPrLrtKeQNhcn8Ifjz337EktW3ECC0J/j+dnTvMxTXAmR1FoWZY9wvI2B0z1vIH4kbmydhoNYuhJY3fEoaqUjBtW3D8MV/9cFaEyuEJkh6nvXV8L6+Tnies3D5RYgQKwQWjx7jdVgJSvzP4rt//RMmbDqPoNgoRLqcx9hfB2DnU9nImrIQc8zp0RPb77I2R8F8+wz0mWokGjyoy8T5jeMxRu8UXrPPSJgLts/9Hf/6x0G4zy453xFjuvWGoXXjGhV53qcx4Lt+uCd+RJLkRsNrWZrveYwcMApHHsuezwX94Rg586j4TOoLnTD33/8PRq0+CZfQKMRll6C+IhI7tGZim1lYw3cv8vYS9Jy4CWHNTCUoDjbH2P/8I34Q2u0THY0ov7uY3ec3rLvqL8bJc9yB7r1GwVJ00aKxcth/4n99tRTP38YiyusqJnT7Hv/sMwqHn7J78hZndUag34JT8gU1q+F0cBb6T1wHh7fCPQm2xPwBg7H4ks97ZkOspT7+9OWv0N/8EGHs/gU+w8o+v2PGhntgjzj52SGMH6sHm1Ch3vA3eGZ2E2+UFkaJe7gWg1dsRxwZDQRBEATxSSCjoWuJjIb2pr4AvnaOCOmCK5C9bzTEYsfE37H0tKdkhEILlEVi28KRWHdfvs5AXQJ2zxqOaQecGo2GvCAcNdKH7ryJ+P6Hwdj7gr0VroTFpqkYtOw6xH5FVTi2L50Bo6eNk83THHai1z+/xtg5utDVbdSiGSPwxTeDcfY1K1mESyvGYeSG+40LKFaFwWBkd6y7HiYeeh2fiwHTdiBKsnBB3H0DdBu4FP5ioUo8PbQQk9dZNa5t0OLUCX/ZcY4PVugMw2lfRW+wGg47ZmDE7CPi4n41DUYDuxup2Dt7BGbsl48AqQ3B6kmLsO+5Yl2EGjzZOgZ9Vl0R0wPP62CitiyOjCwYC9e12CwWddE38FtP4V6+en9QfV3ifUwZo4tH4fIx6CHX0a/XZNwOVTVCQKDQD6sn9MHSS/IpIQLZDoboNWABnFmHsNgDcwYL9+OxrKPte3oB+k/ajDC5d/HO+yh++efPOPdGfgdrorFp3K9YdIstmlmJx0aTMHXrM1kao8QTc4d2ww4HibnThDI4Xd2H+RN64I//NhqmbrLdHGpTnbBwwO8wsnu/XPKLwxjQSws2qYrPczEuLxuJ0evvobpeuLf75mDKBotGE63aG3P6DMVelyyhw34DWlNnw56NTpDzzu8M+v46HDfChYMCF0wfOBzGto3jXvJ9L2JMz1F4JPoYcqPhAlu7oxzm+kOw8LALS5BR4ICZ3fripL/wOXnnAq3vu2GNpXRqUT08j8zFlDVnGhYtDb66AL2mbERYwwf7fQp8r2BCn+G4EtiYyX7rRAzQPiVOFSpyO4BBw6biiTg7Jwprx/fBvDNe7ECgBveWDcE3o/dC8a0rcTuMX3rOhSMbAVHogoX9p+JScKNBFX93LboNXYswpUVAoh+uw+/DlsNLMhQq2+UIBvWcAvvMeqQ92IC//KAHTyVzQUq8JRkNBEEQBPEp6dRGQ1wc4hNTkJWbj7y8POTm5go/c5GZnoyEOE5+0ic2GgpDcHrHYmhrawtaCG3D8wjgDndunlT369h7/CbimvmDuVWUxuPeEX3oLGLtkrXt8G1PpfnNaiJ09tYPGIP9Vq3flq6z877RkI0zs/pDa6eN0AVRlyq8vrAJU5cfRhJ7g16fh7O6QzB5syXneURhm950GNqwbo2S0VAShC2Lp2Hro8Y3xilPN6PfWF34Kr+Iz3bE3JFs6gQzh+RGw8YHskUlGdXh2Dzq9wajwfPYPCzcc6PJGg1pTgcxou9UOMp78QV+5pg1fQ4eJ8mvPNsJC/oOg5G10joT1ekwMZiGBeflRkOaB5YuHILjrxTRW2E0lPtDf8IC7H6mqENuNKy5IfxejutLh+Pn38dBW1f+OV80Cz2++ivGn/EVbnsWbC6sxPe/9MfCBWtg7iGdqFIEs3UTsfCMo+ww5Skm9+yPsw0LVnJgazQsmoODTo22RvHrUxjYbS6sWZ++5FUTo+H1yYWYZ3gBufKPTp3QUR/UTwsPxIU+BcreYvPEHlhiHiUcpMB46A/oPkYLuuL3VRuLZk/AP//+E7Y06WxzqEvHHcPZ+PUXobMcWyY08yhG9JgJ3lIS8Q6nMGP8TkQ0fHjf4eHmsRi/7AoKqstwfP7X+H6oFhYr/t2YNwFf/+ln7LOLhM+NdZg00RBNJpfE3MewvpNwPUy4SNFoGIG9do1GQ4H/ZYxVMhpmXQoSvgMRWNvne/QbMw868uvV1hqNL77phj2uhcKjdcWKPsNxNaDpN6Qy0RKzJ8/HoyDZZynJeiN6DFjx/tQhCbmel7BozgI4S+6H94k56DbfWPg2C8/Q/WCj0VAfijWTdGFsq1h8FHDYNRH9Vp+XfQcF8l4eRvd+2nAVmlDpfQw/f9MdkxbpyK5BexGmDf0J3w9YgNfSL5NAlOVGDF1xscGwYJS+uYphQ0bhRlit8M9CGI4um44evYXPpZ4xvNPf/xeGjAaCIAiC+LR0ZqMhMTUdMX622L9qJmZMn45p06Zh2tQlOP3AG8k56UjklOnq+mRGQ2m0DVZNHI+N5x/C2dkZzi8tsGPfGdiFtv6vwAjzdRijZQB/VSuaKRFlexi6+x6pXAAN6Y6Y0/dbTDEyl7Xt6SXMH/ortBU7GDRDhut5bN55BA0L2Ne+xfZxM3GiobPXdXjfaKhH8NXF6DFmNZobZf8eiVaYM2U2rotvVesRdkMf3UbrwU+pM4JCf2xcPBNGz9hrYyWjoTgQmxZPx3brxu0kW1wM0o1VUIX7m+djtoHEaKh5i40jfsGa67ItKJnRMHOLaZPPU6rdYYwdvgENL2vrkrBPezKWnw+QHb8Lw4Zxg6B7vvENv0hlLHZqD8Cmp/J2prpDT3sITr1WjBZohdFQ5ovl47VhbK/ovMqNhtXXhd+r8XDNGIyetw+OHm6yz7mzK/xCI5GS1/gpTwx4BYvDqzD4m7448zyh4W19vut+9B25DRGsorpMnJ7XA6P32ssSeYiLQTbddaLQ8zgG/j4PT9mFcIyGWZvOIFPuO9YEXsWAPtNgESG/oWVh2CQaDZHCQS6OT++OaUbX4OnhIrsWt1cICEtEXok6/yNLx87JgzDrtDeywm9Ca4AWRI9JCbYYZNNdJ8pwz2Asxq+4ipLadzizbABGbrgi/A/RVdYG4X+kQSExKCyvQqj5RkwaZ4Ao6Uct8jaG9BqDa6HCRdYGYeXIiTj+vNHQKfY/h5E9RzYd0XAxUPg9GTuGd4f2nnvwcpddr4u7JwKjhOstr0N1zgus6T8GFmykRBPKYL58NHTOuYlHdcK/c3N/7459DqoX6GRGw0KlXSdeHZ2N3xfsE7dXbWo0hGHNpAXYYa0YpVMHW6MJ6LPiLIrk153rdEg0GlwKmAd7CX1+m4wTNm5wEz9/zvDwfoOYlHS8axiuJCPy4QYMXnQc0mVNi3wvYsb46XiaoripBQh+5YbjegPQf8xM2CU2NRvIaCAIgiCIT0tnNhqSM3MR+fwE+n/3F8zeYYqndo9xdvMc/PaP4ThpH4iU9BQkcMp1ZX0io6ESz/bPRv/px8Q/VqXU1TXt9LUH8Y/Woe+K241D75XJcMKisaOw276xddHm+ug7eSP88lWWEilyMoaWzno0jF+oDYPh2Bk4YdfYwe0qvG80CBQFwmhKD/RZexmx0heutdnClzMKpdV1iPN1hm94luT5ZMN0lRaWnnJANQtVHALDmT9h4AoTREsNi7q3WKM1FAaPWa+oChabpmDgsuuy3QWEjv2W+WOx2qJxREPy083oO2Ie12iYPrQ3jrjKxmG7Ch2r3v3XQFwGQSDDfi/++R//F/QtZO+nX5+cg398ORwPGl5GZ+OQdl8M0b/fZJRD8JV10NI+hGjxuqvhcWQeug/VxRvJjIMoS0OMHagjW1yPkeUJvWn9sd+l0WiwN5qO4bMajYbRQ4Y3Gg2zhmO6wmioDMbqMRNh2LClZw2st4xG75VXhChArMVa/DxSGx7SRubniiNFqgpyUNTQTyvFgdG/QeeIe+NIlLJA7Bg/Goec88TDbM9zGNDzBxg8CJLVLacmPRaJqflsDD5WL5zxntEwoPvcBqNh9qChTYwGLSWjoX/vqU2Nhgm/Y/FtmdnjdHQifp2+X+iCN1Jfkt043aWBGuSkhCNNumVqrisWDp8Eo6eJqCsPxcZJvTH9pHx9DYF3pQXIzalEiuNpTBmtbDSMwdill8XFNd1P6aD7cCM0jkkAystLUC7c7JK3FhjbryeMHBQ99jrY7RuLP/1rN9yJYB+sNOwe/TNmbn8uSxb+jby3rh/+z1d9IPPGkmA8vQdmnmdTJ6phs200fl18qmGkAKMmJ0t8rjVZDljddxTuhL3/b1WS4x6MnbEDEfIb43FmPnr+OA0Pg5uaDWmxCUgrqEa+7xUsnDFHyWiYhe7zG42GgUOnNBoNE+crGQ3j0VvJaOjWd6FsFwvh34KVA3/AOnHuSCO5WbJ5E5nhnvDwiRHuBJBguRZ//3sPnPJSPNF3MF8xGgO0DiJRuOiK/NTGe1HmhgXCZ/Go0ggbZjQMIqOBIAiCID4ZndpoyMhB5ItTGNm/Nw7YxqCkohwlaR5YNfBbTN92DzGpmUhOSUdOdibShT5QfmEBsjNSEB8Xi/ikFGTnFQrXz1SAHPF8HOITkpGVk4es1CTECcdx8cLfX1l5yM/OQGJ8rHBO6KynZSI7ix3HCX9TZyBPjFGIAuFv9tTEeLFcfEIi0oVyivjZacnca/jY+kRGQxWcjs/BL+OMENdMvz3H5z6MDTZiw4aN2HTiDmJK6lEc440nT7wQ8uohjDdvgGVEIYrCHWH24DnErdzLYvHosR2C4qJhdWK7UHYDNhnfQrT4x2UlXj84jwXjuuOvv46C/oatsHCNadIxEsl4CZ2xw4UOWuMQYETdxPDpa4U/kOtQmeiJs4asXRtgsPkIbENlPbU4V1PoTemLb3/qjvkrN+HkozDhj+9o7Jq0ABee+ePlLWPxWrYft0K6vBdTke4L0zOX4JXc0liJzgfXaBCojnfC+uWzMXnGEvEeMi2bMhqrj1ogv7IQ237/H+ipe6/J1IhijwPoN8UA/gWyp1Wd6Iy9G6djwjjdhhjrF0/G4FHz8JQtMS90jm+tHo3fF14Wd2dgx/aHtPHLT2OwZscVRApZ0m024Nf+04VOlFL7oh5iXO+fsVecSC50FoW6Vvz6M/pNW4ENm/Zh19ZV6P6PP2LVrQgx3fOIFn79rQ8Wr18pa4dWfwxYsBWO8UprFhS4QmfiHFxwl3fq8oJwfu1Q9JiouAY9zNVegSsO7C29nNo8mK+fhp97z4CBsSUyhO+Ow9aJ6Dd5r7gYZE3AOQzq1Q+moeyLlAyjyf0wbqe93BAohZ3xRHTrPgFr915AVFkdbAwG4+clZ2SdsnfxMN0zG72Gz5bXvxZb991CRl09yl5fx1KdGVgpnN+4ch6mLzSEbZh0u896eFxeiTG6pg1mSrjtCcyaOgkLlsmex4YN6zFp6CxccRV6qeVvsFRrPIxsGt/YFwid1O7fTYMVu5BiN0zp0RsGD2XmjefhmZi0+jgyFEaD/wV0+3kMbr+VGw2lIVg9/HvMvSZbkLM68w12LJ6CoWMXi3Wv118N4+t2Dd+zBuor8ezQGPw0Xkfexg3QnjoSeocfIVWeN93XAtOGDMeMxSx9FbQ3HYRvUhmyXx7F6EHrEdjwwSyF2arBGDL/FNidqcsJwMk5ozBy6iJZ7FX62GnqiCzxY1AOj+v6+Kb3YCxjaXv3YtOKSfjv/xyIG8GyznOMg9Bp/+NPmMXSdx/E2jnD8eUXfWAp/jOUgO3jfsDEU6/EvDUpHtioMwaDpy4X61qtvx5Hr78QR9XUZNlC79eBuBnC+ce1Uvj3aHJv7HyumMKSj2fH1mDKpOmydjGtm48hs7bBPaMSZf4XoTV+Kmwb/SG47ZuM72bsEKdOFLnsxu+9R+MRc1fqQ7B0xAxstowW8zGj4cmmYfhZ5wQK5V+xHIc9+PZXLSj8lugXxzFnZB/MXi2re/nGXbj3Svb9MNf9En/pthms6rQnm/BLzyGYt8pAzLdebyJ6DFuDxwGy72j0w00YOme1mLZywTjobL6EcKX1GmItlqGHjgFimpnhQxAEQRBE+9H5jYbTGNmvF4yt3yKnqAglCS+xeNBvmG1sjcTsAsS+fowzl81h++y20C9ZhiPXHRCfXYTMaC9c2KmHxYsXY/GSNTj58DUy8rORGOaBi0f345ZzCDJTU5CWGAXbG4dhfOEB3iZmIS0jBQH2N4WYtxGSkoVIjwcw1BNiLF4C/U178TwwEakpqchMi4fdNSMsYfH19HHRIQAZ6amffITFJzIahL93019h9cR/4pf++rD0TUVl074eYmxNMKbnCGw4egO3b1/B5p0mcI8rQYrDIXT7199hcPwCbt+5DZ+0coRf1UG3oYvhw/rqOc8xafAP6DttO27dviOUFR70xAEYOf8oIkurEeP9AvtXjMJ3wxfjwu278ArPeH9kg2JEg4PitbLQibq5AgO1jBCenwc365PYc+wuHlk9xuWtCzFo0ga4pNQgK9wZpzZMQZ9Bo7H3kvAh82Gv+eKwY1QP/NB7Ok4K9d2+fRWLBvfC7D2yPe1L/M+j51fdcOxVY12fC6qMBhkF8H5sLj4fJnMLW4SlsneXVYj1dYV/hHREg0BlMDYOHo79zxIl50vx+oHsGYu6cw+vQhWL+FUjPTIAPmGp4lteRl1RMtwf3YfZ/ZdIF6qqzouGt18w8pQWnqsvy0Kgrzfi8xt7qcUJgXhsIbTX3Fr4ouchJdwfkSmyV6MFCaGITM5EvO8TsR1mdx8hntuZeYeH6yZh3h5LlCpuSW02HKwU12AOT47hVJUbi+eWFjB75CPctTrkxwbBNyhefNNbX5ICPx9fpIkBKxAb5IvAuNyGKQ51RXFwenQP5o9eQOg3Ij/GH97hyY0jE1AC76f35fWbCd8x+Wp7pclwsRHqZOfNHyI45f12FQSYY/7IKXgQ23ifalNDYWUufx5CvHv2fshhyXVFCA8JRGxOo31UXZCA157ByGYXUlOAIOE6orNkRkJhYgiCIpMa/l2oL07Fa2/hH81SufNQW4rIN14ITZO8nq5Mh/M92WfKzOIx/NlD5pAX74NH9xo/N5YO3u9NiapIeINH4nWYwdYjWByxUJWbgAC/KJQ0fABrkRHpD/+wZPFZiFSnwFnxPM2eICRJajZVIcT9KcxZmrUb0nNz8TYwCClFDZ9QxLrb466Y7o3MgiyE+QcgU2zcO8QGeiEwWTJBpzQJtuwzKeQ3u2eFsDzZU62rykW4tx/SGz5kUmrgcGwhBi69AblnJ5Ia4iRrl9juu7D3jxa/N3WFKQgJDEau5FYWxAfBMzhWHPFRkx8HH98AZIuPtRThb4IRk6W4m/XIiX4D77dJDZ+3qrx4eHqHNPnOFcS44q6ZrG5LG58G4yozwhuevrHivY1+tBljV56D/1t3WRvNLeGb1fgpLk0PxcO7ZmKa+X0bpHAefXlmBHzeRqO8sRhBEARBEB+Rzm80mGBUn27YfMMdsUnC37wHl2LY6BWw9ItHVl4Bwq134pee32P0vB04evIMLF/4IyrkGVYMG4Hx2utx1vQijhnpod+3g7D9ujsy0l5j/YjvMXDFDSQWFSA3zgc7Rv9P/OFbLTwOzsa7/AicWzYJExcfg6ePFVaOGws9w5O4cuoQtq7RhcnLRORnJcJixywMHaYF40uXcGzTbPQcMAkmtsFC/CTutXwsfTKjgVFZGIj98yegb+9f0WPcNvhnyd7s1aW5YPn4gdC/JltsT0ad8KGsReKz3fj5n8NgFtnY3Xx7cyWGTlmLN6w3kO+COQN+wZJzsm3gRHLdoDfwN2yRbx0X/3gzhq2909ABfY9MVywd3RNzjc3Fm/PC7Ci0xk7B8adRqK2rlY+AKEd0kPBH9NNTGN5vBA68kHVwi50PYMGyzVC800NdJLaO/A2jN98TOyuMVNtd6NdrEV7l16O+ugw52TkorXrP7uj0NG80tJZ6BFnswMrj9k2Gi3c23gXfxRJ9E4Sw/TU7O3UZMNu7FXvuyaYvEJ2D0gh77Fi3Ge5KU4Y6MlGWGzBo8ekmi0ESBEEQBNG56OxGQ5TzJYz/6V/xbc8hGDt+DPp1H4B5W8/jTXwqMrLyEP5sP3p98yPWX/NGXmkpCnKScd94GvrM2gvvhGwUFhWhtDQVlttnoMcAXbyITcOL49roP0QXL5NKEet+B5uHfIevh+rhqPVbFMTYQ2fGSBjc9kWAlRF++9tY3H3LXmLVoSAtBhHx6Yj1uIqJfQfi8DP55N3qTFxcOhQ9Zh1HaFYGkjnX8rH0SY0GBWXxjlg14lf0HLcF4cW1yHE8hKEDZ8FROlJbTozVfowbsQ7y7fNFwm9JjIbs55g9SxfXA6Xd0QycmN0Ds+XDjkPM12LQclNxuDOXbE+hPV/il2EzsGjRIizS3oTbrxT70tUiyv02jNbqYJ72IuhoT8EP/+gBo/syayHVZidm6QhtUbx4FBeD1ILJ88ZlzEqDb2NCz8m4F8157fYZoVmj4fPi87oj9Hw7I53paxl+Zzl+m3UQ8TQagSAIgiA6LZ/H1Ike2PkgAGnZmUgMfoF1E77CkBUmCMkoQdSzvejfZzoue0QiPSMDqfFu2DSiO3TPPEdmZrq4DWZKVgEi7Q5hYO++OOYYj0SPy5g1cQIuusbg5bWtmKN/CPuWTofeHgv4O17GjNEjcckzHVmRz7BqcH/06jcThodPwzk0HUWFBXA+p43vfhuKFVt3wMjQELt2GGLe4G/wt76r4J6Qg/RE/vV8DHUIo0Gk0h96/ftg6723SHI5hxnj9GXGgRJRloeFh7GncbFFgfeMhtmLcaOJ0ZCO0wt6Y6WZbIREkNkaDFpxDbJl7DiwqRPjRsPY8f1N2TN9zDBzQE/om7rLF5qLxYaZI7DulmxBs5SnOzBbdx0CFON/5btOnJTsOlEUcAPje03FgxgyGgiCIFqiKOE1bNxDJdNWCIIgCILobHweRkNP7HkciqzsNKTnleLN7ZX4beQS2EXnIvrZXgyZvBhmXjFIT09HSrwbDIZ3e89oiLA9hIG9+uCQfRzKkl2xcspwzNltiuNrJmHb4zAEXl+NiesMcdpIH2Om7IFfeh6yMrORFvkK1w7swqJh3+LXiYth4ZcG78s6+P63oVi+ZTsMt27B5s1bYLR7H0zv2CEsIQVJCfzr+Rj6NEZDfR0qKkqbLsJYHYJ1U6dgz8MYlCe/wJKRg7HfSTHfXqCuBpVVtYiyOoKZE3Y12SauidGQ74o5fb+HrrgNnIzaWCtM6zkMF3xl1kKg8IHot9gUSkv1NcJbDFJOxB0D9Oi1FGz3fkahzxn0/8s/sfWBzPpIszHClPlrEKqYtl4b9t72lg1GA5vbXlOOvNw8lFXT1AmCIAiCIAiCID5POr/RcAoj+vfBIYd4lFeWorgoB1Z7xuCnMavgHF8gGg2DJ+jglmc00tNSkJoSi8trBqDPLGP4JucI11+E0pIUWO7UQs/BOngakoGSwhhcWzcN44aOxqix22AfkYUMr0sYO3Aqxs4aA50LrsjNTkFMdCTiMwrE/nN5ghPm9P8vaJ33RqbLCfTuOQGXX8kW+q6vq8W7kmzhfiUjKYHtZMG/no+hT2M01JbA+tRsTN16Dubm5oLMcGDVTExadQph4kCEKnjdNMSAvtOw6yJLN8XBk7cRkl6COCtjjB5ogHBJ3zX0snbjYpD57lgw9B/4ZtR6XLp7Vyh7BXqTRmLyejNkyvvyWT6XMfbnPth28S68IjIliwvKSbPHjH6/Y+092Qr4UorCHmP+kAGYt/s6zO/fx+ltY/Ef/+Nv2GAu24GgMuYhpg0YAN19prD1TQXqwrC+/2jss2ocg1HoexEDvhkGttMi20u+9ze/47hnV1sMkiAIgiAIgiCIrkKnNhoycxH5/CT6f/NvGL/qAC4KbTq1YxVGD+qNTdedkJRTinCrbeg2ZBauekQjPVXo6CenIvrNfej2H4CRszbg/LXLOL5zOYYOmozD914jNTMVqVl5CBP6t4P+8Qd8t9IccSlZyM7wg2H/H/Hnr7rhsnc68jMS4WV9FLorduDcufM4eWANJo+cibMOYchLD4GJ3mT06zsJey6cx/nTx2C8ex+uvghBekoi91o+lj6N0SB07aOcr2DTxg1Yv369qB2nLJCitD5etP01bNsgSz9q7gS2kH9xpAfumb1ErqTvmhNog+t3bJHOPrMZDpi3YAXOWFrj+A4Dseyu6y8bVjKXUQyPa7uwccNG3HGJbjqyglESD6vbN+AYIVnhXUKqz2MYbhTatc0Ytm/C4fTIDPZBin3oK+BveVG4tvU4ZhkqHBfA2ew+PKMap2FUpAfA7NJdhAuNqsvyw+XTF+GZLJuI8TlBRgNBEARBEARBEIzObDQkpqQhJuAlzu1aiWV6i6GrowPdxQa4bheMzPxMJCenIsrbCsfPXodLcCySk2RtTcnIRELQcxxdw8roQnfpOlx4HoK8rDTZ9pOJqUiPeIXTB7bjiq2/aE6kpKTAzeIgdhifg3dkMtJSkxHm8RDblgoxdIUYi/Vx8XkgMtJSkJCUiozkSDw4ro/FLE3Q+p23ESiOaHj/Oj6mPpHR0I6k2GG21iJcC/q81z/oDJDRQBAEQRAEQRAEozMbDfFxcYgXOvXZeYXCdSiUj8y0ZFmaoITkdORkZyIlMb5xykJcPBKT05BTIC9TkI/stCTJlIY4xCWmICc3H1lsO0ohThxbyyEzF/l52Uhm0x+Ec4lC7LyGeguEvEK9QlkxRkISMnIK5GmFyM/NQJJw/lNOm2D6/IyGZGuMHzcDZ7zy5SeITwUZDQRBEARBEARBMDq10UBqtT4/oyE/BBfOm8I1/vObitDZIKOBIAiCIAiCIAgGGQ1dS5+f0UB0GMhoIAiCIAiCIAiCQUZD1xIZDUS7QUYDQRAEQRAEQRAMMhq6lshoINoNMhoIgiAIgiAIgmCQ0dC1REYD0W6Q0UAQBEEQBEEQBIOMhq4lMhqIdkM0Grz95EcEQRAEQRAEQXRViotL2mQ0XL16FampqUhJSUFycjKpkygtLQ3Ozs5kNBCaJy09E09sHBAdE4eExGRxj1cSiUQikUgkEonUtcT6Am8CgmFr74Samlp5b6Fl3N3dsW3bNtjY2MDOzg62trakTiJ7e3ucPn0aJiYm8qfZOshoIFRSVFwMr9f+eO0bAB9B7CeJRCKRSCQSiUTqWmJ9AdYvCAoOa9W06ri4OHHqxO3bt0mdUGw0Cps+0RbIaCAIgiAIgiAIgiAIQmOQ0UAQBEEQBEEQBEEQhMYgo4EgCIIgCIIgCIIgCI1BRgNBEARBEARBEARBEBqDjAaCIAiCIAiCIAiCIDQGGQ0EQRAEQRAEQRAEQWgMMhoIgiAIgiAIgiAIgtAYZDQQBEEQBEEQBEEQBKExyGggCIIgCIIgCIIgCEJjkNFAEARBEARBEARBEITGIKOBIAiCIAiCIAiCIAiNQUYDoZKi4mJ4vfbHa98A+JBIJBKJRCKRSKQuK2+hXxAUHIb6+np5b4EgVENGA6GS1PQMPLFxQHRMPBKSUhCfkEQikUgkEolEIpG6mFhfICAwBLb2TqipqZX3FghCNWQ0ECpJTcuAl7ef/IggCIIgCIIgiK5KcXEJXFw9UV1dLT9DEKoho4FQCTMaPL38aHgUQRAEQRAEQXRxCguLyWgg1IaMBkIlZDQQBEEQBEEQBMEgo4FoDV3AaKhGZkIkolIKQd3l1kFGA0EQBEEQBEEQDDIaiNbQZqOhOj8Gz62tEZrdwT9odZk4qTcEY7baQHVLy+FleQMPXiXIj1tBaSLs7z9GcMY7+YlPTRVCnt/GHfsQfOgyLS0aDTnBCH4bjjKl5IJwOxzctw/7DhyBQ1Sh/CxBEARBEARBEJ0VMhqI1tBmo6E09CbGd++OY97F8jPNU5PsgiNnzRCaVyM/85Goy8LpFSMxcfszlUZDmssxTJ8wHVc9k+Vn1Kc+0Qpjv+6Bw66Z8jMfRpzjHVy5ZYfcNg8iqEbEs0MYNVEbt4Py5efaRnNGQ2bAI+j0/gIz95mjQJKcH3AP86fNwJojp3DKaD4GjNHGw5ACeSpBEARBEARBEJ0RMhqI1tBmo6Es3AKzhw7FOb8S+ZkWiL2GgZNWwvVj9znrsmCiPwqTjGz5RkN1LA7paWHT9SD5iVZSW4GCnDyUVWlmm5fQ82sxd/lxfJhFADge1MW8rdeQ3WbDQpXRkI2by0fj9+4/4l//P/8XJhs/RZk8BcjFjWUjoH3KVX5cjdurR2KAzlXkfUA7CIIgCIIgCIL4tJDRQLQGDRgNpeJxbmw4wmPyUJjihzvXr+GGmQ2icmSd74I4X9zaswg/9RyJDccu4/GLQMhKCWnRTrhx7Rqu3TCDb0aV/KxwPuUtAmPTkRrujtvX7sH5lRc8feNQIU9nVGZHCB3hN8gXqqnJjYXtTSGOEOvmPVtEK0bst2A0lPhfx8I52ngULxtpUVOQgKCIOORkROKxmXAd5paIEnvJxXC1YPFvwT5YMnqhIhdhfoFILWLla5H61hfx+aVIC3outuX2o5fIlA/iqH+XiyAvD0TlVspOCFTlx8PH2w8ZpRVI8n0Co3mj0H+4Fo5evQ2nsCx5LiDFywrXhXjXb1kjXjqIpC4bTpa3ZNd95zlicmSxy95cxIx5q+GQyJ5BOcJfu8InMhN1Yqp6cI2G+kTc3mKAR0GJsNk+C0s3mEPhHVXFWWJG71l4EFkuPyPEcNyPQd2n40UmOQ0EQRAEQRAE0Vkho4FoDR9uNPjL1iZ4ZaKP778bDIOD+7B36xasmDgIw+cewtv8OmQF2mKXzhh88V0PaK0wwKkbTmLnNNb5ChbNmISlW7Zgy9JxGDh9HRxjZe/H39xYjC8GL8CefQewc8sBmB5di4H95sAxV0wWqIXH4XnoM2ELokvL4XNnOxYv34btRkZYNnUIhumZCOeFbPXZzRgNtfC/uR96K85D0Q8ue3MJo3v9iLFr9mL/ri3QG9MNgyYuxiHj3djO2rlhDroPmInrvhli/vrkJ5j0Q18cd88TjqpgtvhX/DR8OrbtP4wtQv6Zg3+D1h5LcYRCXdoLzOv9E7Y/bzQqct2OYVifkTCPKEGY7RksHNkTP/8+FCs278At90QhRxV8HxzE7IlTsF6It15rBMbr7EMwC1iVjLt7VkBrgb5Yl+6UJbjhHCtbm6EqCOvHz8GZFznCQSxW9vkLBqy/h9asJNH8Gg31sN+uBb31jUZDluMe9Bu1Dp6SuRTFby2wYMhYmEV+5CkzBEEQBEEQBEFoDDIaiNagMaPB79IS/NfXg3AjWP66vdgZs7r3wU6rWNlxyl1MmL8VrxVDGUqCsHH0YGy8Ey0/AdxeOwJD194Th+KH31yEv30/CVZx8g9yoTdWjB+A9ffiZccV0dihMxVrb4airrYGBQU5srf1tbUo8L2KCcNG4lwge7ufjzMqjYZSWB3dAF1DO6E7L6M85AZGfPsVdE1DZSeyHTD2q/+B7ktM5Z30epitGoR+K80hvrdPtcPsXiNx1kvs+cNMrwf+3nc5XsvnPpT7nMHQniNwL1HofOe6Qm94H+x92ThSIc/zDMYPnQDzKNlx1I3tWL7pAhQTUqoTHmPG0JE48Upx43Kxf1p36Ajtq0q+j4G9J+JOnDxJaFFRcal81EI2LmlPw/abvsJxBWIDXyMoLvvDRzQ0UIVn22Y2MRqynfdjmPYeBErWf6yMe4YF44bi1Gv11vIgCIIgCIIgCKLjQUYD0Ro0ZjS4nVyHWToXwd7ry0jFwWnDoXvMUdxWsjbEFKNmrsXzZFmXPtf1IHoPnImzVi/wwsEBDi9ewmT1CHzXey3Y3g/ht5aiz4yDaFyesQrOxxZj+ExjJAsBS/0uY9aUObBLl6UWJr6B2eG1mDN+EqZMGIyvvxyAAy+yhZSiZoyGQlgc34LVJj7yY6DE7wJmLlgO+4aKo7Ft7CCsvhEoP67Di8Mz0U/3khBZoInRUAHzNUOx9MprliJSn+WO5aP6YM9Lofdd6I7FQ983GiYMm4g7UTILwOfsBixadQxJ8r59iOkyDBynjVu2Tngu3KfnTs+xa8aP+EH7FspLgrFj4WD0mr4dj196QTLzREBo5x5t7L75Em0dS9BaoyHLaS8GT9sGX4nRUBZlhUWjxuBaaON0EYIgCIIgCIIgOhdkNBCtQYNGgwHmC51v1rWXkYyD00dA99gLJaNB9sFMtdmGn3/pDS1dPSzW1YWuIL2ly7H37FOx4xp0exWGrLwF6eaIZYGmGDt0IsxDMmF3ZC6mbrAQ3/znhVtjyZBfMOPAbSRXCrXlu2HJhBEwfJImpDZnNBTB4sh6LD3k2rAVJDMaZuuuhC0bgcCoi4ThmGFYd81XdixEsd03DQP0TCG+o1cyGu6sHQr9a94sRaQ20xXLR/XFHqc84J0/Nk7sjwOubDqDjEKfi5gyQrgmrtFQD69Ti9Dt136Yv2SJeI90dRdDb9kqHDT3kxkI5VE4Z7AUs0f2wejJBvCME+0PgXew2jwH2687N1xba2mt0VDieRy9fp+LJymNdzrL0wSju43H46TWjKUgCIIgCIIgCKIjQUYD0Ro0aDRsxFydC2h8V5+EA9NGYPFx+YiG4EsYPn0dnOUZ3oVcxehhunCWTzFQxvfmSgzWv9HQiRWpTsOZZTOxcvt+bJivhQtvZBMM/K+sQK/BW8FsBUZFyG0M+a4XdtqxtRCaMxrewcHEEHqbHjesXcCMhlmLVuBZgrxjXBuBbWOGYu1V9Y2G5aaeLEWkNsMFy0bKjQbEYveU37HhEVt7QUakxUZ8//NkPIiV1ff69Fporz4JxSoOSdZbMExrMyLlxyqpS8COAd9jwREHyMYO5OHa4vk4eD9AvP9tobVGA4pfQbd3H2x9JJ/eIuB6fB56T9iDhCajLQiCIAiCIAiC6EyQ0UC0hjYbDaWhtzCxRw+c8JHtMPDyoD4ma52CbIlERgJ2juqNOfvtxHUB6jMcMX/AYGy+7oKYpGxUVWfiou5wDJ9lhJehYQgLC4GbkxVs3sicB+8rOui+6PJ72zymPTHEV//PH/D1jAuQb2qBDDcTDOw2GAdtQxEWHoibG/rh//uHr7HDlnXXC3FsUT8M22jNMRrqEW15GDo6O/FWvp1FsfcpTJipjcdxCqMhDOsG9IDeeS/ZsRDF2mgUfp13TjZ1IvkJJn6vWAzyHW7o9cDCc24sRaQ2zREL+v6ELbbMYanCY6OR+G64Dp4GhiEixAU7h/8Jf/jLGDyIll1Mks0ejBw2Fddcw5CUW47akgAYTB6C0SsvwC+M3acwuFqZ43VuDaoinXH30X14CefCwxyxdeY07LzlIxvBUPAKq7SW4KY3GxOSjCM646B38oXchFCPloyGx+vGYd6y65JnVINXp3XQd9RiWAcIbX15GfNGjccZl4YVPAmCIAiCIAiC6ISQ0UC0hjYbDRXJbji8bRtsYmSvqkMfm+LoKVvJVIds3N+/HaetAuVD9+vgY7oZk6dOx7qDlhAnD1SnCnl0MG3mTMwUpLvZFNHFsg5+tNMFbDnv2LANZgO5r7F96Wzss2lYARGoL8eru8aYPE2IM38NzJ9Z4+TunTDzZV3gMjw9bwTj2/KpBkrUJNtgydy5uCRfpfJdtC0OnzwH3yx557ouBTd3bsPl54pFK2vgZ7Efm0wcZItB5vrj8Hoj2ESw0RVVcL28DeccwlmKSF1+CM4abYS53EBB0Vuc3zQdU2fMhLb+ATyzvYu9O/fDLVXeuoo4XNq+CFOnz8JhG9k4hrqCtzBZNQ8z5PdJ/8QT5Ai3qT7dAztXTcN0dn7GDOy95ooShfnybA+mLtoCP9mwC1zeugTbr78SWqg+zRsNNfC9eRAmV1yUnlEJXlxcI17fzGkzcNm5cfQGQRAEQRAEQRCdEzIaiNbQZqPh86EQ97fPg67xQ3G3i8+CmmycXTMb+qedGqaEtIXmjQaCIAiCIAiCILoKZDQQrYGMBoGqNHusnDoK2x+EyM90ZirgdmE5RszbBb8C+fSPNsKMBi9vf/kRQRAEQRAEQRBdlaKiEjIaCLUho0FOSVYKUnLfm6jRCalDYWYy0vM+ZCyDDGY0vPL0pRENBEEQBEEQBNHFKSgogjMZDYSakNFAqCQtPRMPH9nAxzcAbwJD4P8mmEQikUgkEolEInUxsb6Ai+sr2Ni+QG2tfFE4gmgGMhoIlbyrqEBsXAKiY+IFxZFIJBKJRCKRSKQurOSUNBrtTKgFGQ0EQRAEQRAEQRAEQWgMMhoIgiAIgiAIgiAIgtAYZDQQBEEQBEEQBEEQBKExyGggCIIgCIIgCIIgCEJjkNFAEARBEARBEARBEITGIKOBIAiCIAiCIAiCIAiNQUYDQRAEQRAEQRAEQRAag4wGgiAIgiAIgiAIgiA0BhkNBEEQBEEQBEEQBEFoDDIaCIIgCIIgCIIgCILQGGQ0EARBEARBEATRLtTV1aGmplZQDamzq7YW9fX18idLEM1DRgOhkncVlbB388alO49xxcKaRCKRSCQSiURqoovC34mW9i7IKyyW/wXZSHn5Ozx/4QInZw+4unnBxc2T1EnFnt8LJ1e4unuJ5hFBtAQZDYRKikpKsef0VRy6eBvmjx1g9tieRCKRSCQSidShxf5maw+9Xxf7+/D0jfvYfPA8ktOz5H9BNlJcXAJ7B2ekp2eiqKgYBYVFpE4q9vzi4hPx3NFVHN1AEC1BRgOhEmY07DxpiuCIWPkZgiAIgiAIgmgkJT0bRsevIC0rR36mEdY5dXX3RnV1tfwM0ZkpLi6Fi6snPU9CLchoIFTCjIbdp6/BLyRCfoYgCIIgCILoyBQWFCIrM1NQehNlN1EGsjLSkZmR1nDMU47i9+wslL97J6+hKbGJqdh5whRpmXyjwcXNC5WVlfIzRGemsFB4nmQ0EGpCRgOhEtnUCTIaCIIgCIIgOgNsSPsV0ysw3LEbu/cfEXQYuxTa1yijvYewbc8h7Nh/FFt2H8QO4VghlibKWCbD3QdgtHM3PDw85LU0JTYpDbtOmSItK1d+phEyGj4vyGggWgMZDYRKikrKsMfkOvxCIuVnCIIgCIIgiI5KdXUVTpucxqajV2F8zxe7zF9hp5kHjG65w/CmG7bdcMPm667YIvy0dAuFZ2gCLjz1w+pLTqJWXXSC/nlHLD/3AsvOvsASQbqn7KC/xRiOL57La2mKzGi4SkZDF4CMBqI1kNFAqIQZDcZnbsA/lIwGgiAIgiCIjk51VSWOHD2GTWcewNg2CTuto7DDKgrbLSOx9WEENj8Ix5o7objqngLFJoXpRVUwtIzA4msB0LsRJPwMhM7VAGibvsGCKwGYc8EHy7buh7OTo7xEU2KT07D79HWkt9poqICf8zPcd0mSHytTBqeLhlh+wBKZnH5tXW4gTmzRxZw5czBn1kzsvPoCJfI0BUGP9mDWbJY+H+ccaITuh/IhRkNtba1YrrVio3RoS83OCRkNhEqY0bD37E34h0bJzxAEQRAEQRAdlaqqSuw/cBCrj9+D4dNkbLGMwaaH0dj4IArr7kVirUUElt4OwzmXVFTK+26R2ZVYczcc8y4HYsHVIPHn7EuBmHUxADMuBGCqiQ8Wrd8FxxcOsgJKxCanY/fpG+obDfVVyEmKhJnhMPw//+93WG3Gf6H1LuoRhv/xD/jDyL2I4/gUqb4v8MDiIbxev8Zrm7OY0vs7LL/yClXy9KiHOzFBSx/3PIT0x8cwYfBIHHNSZWoQ6tBWo8He3h579+7F2bNnW6Vz587h4MGDuH37tjwS0Zkgo4FQCTMa9p29pYbRUIP0+LfI5a8RhNqCdMTH5Qi5eFQjNcQL/m8zUSs/I1KRi8iYTCG1KWXJgbC5bwbzu7YITiuXn1WiogCBPh6IzpX9rybK8zHuWtzDgyfPEZOvvO/vO4R5PIGZ+V08dfZHsZJhmhHmgQd37uLuPRu8SSiSn1WmDpmRPnB+E4N3TS6CIAiCIAji41FVVQVjoUO3aPNhrDhljWXHHkJP0JKjD6B7+D50Dt3HwoP3sOjQPVy1egk3z9fYe+0ZtPaYC7qDmcLPGbvNMX2XGabuNMPkHWaYaHgDc/TWwtbmqbyWpsQlp2OPyU21jYa6pCeYOOAH9B06HD981xMbHsTIUyTUl8DpzAL8/a9/xS/zjyC2Qn5eQl1d0z/avI/PxGDdo0hif+pVR2P3jGnYZ9VoYjgcmI7ec08jS/lPQUJt2mo0mJub49atW0hOTlZLOTk5SE9PR2pqKp49e4bTp0/LIxGdCTIaCJUUl5Zh/7nbeBPWnNGQgaeHDaC73ADe2fJTEorCnmHNHB3svvwK3Nl5pW+xf/ls7Hn4tsGIeJfggYMbdKC3/xlK5ecYRbHOMN6gj/3HT+Dk7q3QXbIdzonF8tRGct7cxNJZK/E8sRJvHM5gs9F2mJw5i0Nr52DaxlMISpe3RPifmNetw9DfaIgTJ09jx9LZ2HTZFfmiWVCNWPd72LVxJ46fOo3jO1Zj1vSNeBbx/orKtUVh2DvlJ/y+5BSSy+QnCYIgCIIgPjKsA7ht2zZozZyJRYt0BC0Spa0tSP677Fgbs+ctwMw58zFvwcKG8zyxvNOmT4eZmZm8lqbEJ6fD+MxNpGerZzTUZgfjgZ0bckpyYGI4AytuhctTGsnwuorlG7bh/L5lmDRvB96KL7Mq4H1X+Jvsjvt7L4YY/iZzMH3TJeQJv5f6n8XQMUthF6cY3wBkuZzA4B7z8YKchjbTVqPBwsICbm5u8qOW8ff3F+oqFH+PjIzExYsXxd+5lCfA8spFPAlQ6ojUleK13U3c9UyWn9AQtVmwPrYS+vr6otbsPAVf3twejVMJf4vjWCvWuwpr12/AurWrZO3Yfg7+GZXIC7PFmTP3kMztdH18PsBoqEdZnBMMV0zF5MmTBY3HqCXGcE9h3cU6VLwrx7vqtn+R6+tq8K6sHNwQ9YV4cXalrN5JEzB6xHCMHjdRPJ6+5DjCi2oR+cAYelvPIIHjgBLqUVxShv3nzfAmLFp+Rko9Yp1MYaA7BQN++hbD5u5EUL48ifEuHrf2bcLc8QPx9ZdDsN3iDXdEQ47XdaxcZ4w3BcL/MeryYHvBCNMnjcAvv/aA9rHnaBgkUZsHy31rsOKsk/xEKR4YzcPiPQ9R0CRwOVzPbsHqw8/BLIhX9laIY7EZpREwXDQBhvdCxMOyuCfYMGcVnsbL0qsjraEzey5uBrD/RVUiys0BLm8Vs/3yYLZ+JnT3PkGR0v/c4p/sQ98fvsGEjZeRqmKQBUEQBEEQRHvz7t07bNi4URypmZCQgPi4OJniOVKkqUoXlJAQj9iYWBhs2iy+lebBjIa9Z28hPZv9/dSUZtdoqErC3tWToX9byWgoCYPxXC2ccElA0JWlGKq1A+Hi3/PFMNXph9+1zyBD/FusHu8KspGSnIwodzOsWLISFn6yzmbKk60Ys3AzfCV/m5aHP8LCYdPxMLbRfCBax4cYDc7OzvKj5vH19UWvXr0wc+ZM8TMcJ3w+mzUaclwwr293LL3+Vn5CTm0mzq4dganHX8lPfDj1Bb7YMW8mluwywaNHj/DowS3sNVqNK8GsA1AC69OrcPxFrCxzWygOxrHNB2AXWiA/IaUGqYFusGb1PjyNcf/8MwbMM8ZDdmzniZTiGkQ82IKBA/XgK31T+wlps9GQ9+Y2Zg0cjQPWfsI/RPHCP1Kvce36PbjFCB+8mhjs26CLXdYJ8tyt5138S2ydqwtriRPZSC2Kc1Jk9QY9wYKeX2LeKUfxOCE5GxW19Qi9swO6m08jnoyGNsOmThw4b67CaKjCmwdHceK8Hfxf3YDB4p3wkxrZuUE4ves4rP39cXfXJhhcf80xGgrxcN9qbDT1lE2bKE3AzZP7YOoUAvur27DiuG3DiIaKZFdsWL4E90Mavznp7ucwZ956uGc3/mNXm+UJ46UrcCdENtKhqSdQgUe7lmDJEXuxLUFXjbDI0AIN/w+qy8ZNg/lYYeLWaHBICLm3DQuWnGhiXlXn+ODM7jXYuWM9lqw6g3gyGgiCIAiC+ESUl5djo4EBnF35W1G2FWPjfbh79678qCnMaNh37jYyWms0vEvEvjXKRkMxbA7Pw2yje+LCjkHnFsmMBvHvq3pUlhahqLQCsveQ1XhtaoRpkydj2iId7LthhcBMWT2pz4wwU38XAiSzXt/FPMXi4aNwNVjFXF+iRdrbaIiNjRVfHP+v//W/MGzYMJlZJvTvmjUa8l5h+Zhh2HBHaa2P2myYGk7DwvM+8hMfzpurOug+aivCm3QwqlEhfiBrcW11LyyzjBfPtonaACwdsQB3gloywzKwd+pgrDOVvTztqLTRaBA6bDunYuD8i02GtjeSCKPlM7HFOlN+3AbSXLF2/ExYp8uPVVHxFlvH98Im60T5CUJTsKkTBy+YI+Atz2hopCjiNjYt2gHf90fMCRTjifFmbLjm/Z7RUB7jjE0r18Im5v35Bq9uGGL58capExl+F7F8zlZ4ZclPCFRFP8WKORthldy4xnCo9X6s2HYVGdzvZyYurJuLDVd9hLbUw3zPPOEL6i5ZG6IcTqf0sWbXY3HYXVOq4GKyCvMNbqLB16gvxJPDW7DL4iU8LfdAZ9kpMhoIgiAIgvhkyIyGTXj+4qV4zNYxUEi6cH9tXZ2oumZW82fpjOrqGuzatUe10ZCSgX3nzFo/ouE9o6EGUY+MMXraOvjJZ8aGX1mCkfP2ocXB70VROLuiB7ovOin+DZhltwMj5hjgteRv09KQe5gzRAtWCa3rJBONtKfRUFFRga1bt+LPf/4zfv31Vzx9KlsTJDw8XENGQz0iHC9jz+7d2LNnL647RjYsHIraVDw8ug+7hbT951+A26URCLgwF7+MW4sI5TXZyuJx7/JOTOj9d/ScvgK7993Em3QWvRL+9rI6d+8xxgULZ3HENaM8PQwuL18hJtwDl04dgMlVM1wx1kWPb37DlMWbcPjqIySqmpJdGw2jiQOgf8aryRp3+bGvhfvmjlx2siwN3k5OiIwLw8PzwjXvPYwHnmwKeDHsTI8L12qMMw9cobwCXYLjLexj7d17Ci7hsukrbaWNRkMNvC4uwc9DVsBbacp6Xe4bHFoyDT9+83f8MGAStJfuh6+Qp742DWbG6zF33jzMmzsHK04+bOgMprrfwEWzR3B+dBzzlm7FmQunsVlnKL79698xYOJsLDt8H8mqzMeiQGwa2xMbHjbtDMc+v4z95+4jk/37mekNU9OrsHW2wa5V8zF3zlycfRKK8kLhH6U1CzFv3hwsO/IIGdLvTH0e7EzWiO2dO0cPt7xTZecronFmy2qcdviAYTGdBNFouHgHAW85i/RIyAm5AQNVRkNdLh7t3sQ1GnxvbYferod4/yNcB9erW5sYDel+F7Fp8X4ESb8NKa7YsHAVbohTHRipuLB2Po7Z8f935H93J+brGsEzhw1JqMDtwzowuv9GlihSDZ8bm7FiwzWkK/37meZ5HbpzV8BMuEjF/5ITnU5j9frTSHxXh7cPjLCQjAaCIAiCID4hihEN9s9lW1HW1NY2GAaM16994O3tLW4XyFRe/g4PHjzEHmNjHDhwEPsPHBB3B4iKipbnEbpKVVUtGg37z5t/wIgG+baTRaEwHPFX/Nd3AzFv0Xzh7/N5GNPjS/zp7z9juv4B+GUr9+6UiLmNob9NxEPhz8DKgDPoN2gmrKIa60112Ie+PXXglq/aXCGaRxNGQ3FxsfD5ihI/X1IeP36Mr776Cv/xH/8hfN52NXxm3r59+2FGwwU/8TDQch+0Zi/F0bNncPrQVqzd/QjiBIXCQBxcPh1ai3fizJkzWDpuKOZuvQve6/LavCBsGv03dB+7Gnd8JW8/y1Jga3ECswZ/jQHaQl/2vBXCsquRE/kaxzduxunLV3D14gFoDemLjdd9xRE5+a+vYdYPX2DOriMwMb2IWw+f4P7pdej/Q2/MW38AVx48R5qq/q8KoyHo1mp06zYfvqyrk+eBxd/9K3rOXo0LN4Rr3jIbv343GDprdmPvPhPhWvdi/KAeWGnqJfSKGFXwur4L48bOw0HhPpwx1MbIMTqwajI3vnW0eepEXWEY9uv+ji+/moBjlq+RXijvRlbm463rXSyYPAxz996Hl08Y8oTPSdbrR7h61QyeoW8REWQL/YmDsPqKbM5M5I2l+O3br7HqwjN4+gQiKjoSrx+fwIz+w7D3ngt83iahTNW/LSqMhldHZuL3iesQyT7DiY8w8Zv/ia/nHoaznyfsz+mjxzdfYsS0Vbht5wVPzwdYOKwXFpq4yjrD9fm4vnoSxizaB2dPTzje2I5Rw6bh+pti9i8X9If3wrLrgSznZw0zGg5duts+RkNlPM4Z6OGEI294Ecdo8L2I9YuM8UbyWa9PdMTaBRtgESWzKqre3oe+7i645yhZGpWpsDi4ETMn6MHCX/E/wTLcPqCNbXd85ceMKry6sh5rtllIViR+Bx8zI0zWmo8DlsENX+aS6JfYumYNrGNk/whGP9oJnZUXwFkPkyAIgiAI4qOgbDTU1tSiRlBycgpMTM5g4MCBuHLlipjGKCwsgs4iHSxcqI07d+6I6zBcvXoVCQmJosnARkJUVjZvNCSkZODAhQ8xGuQjGqpLkBobipAgf3gJf397CjJdPxbdhy2CxSuhP1FRi5LcDKTnlghtq0ZR6bsmU2TjrDah19ClcMkQDqpCsW5EPyy/7C9LZC+Y1o3GsHXm773BJdTnQ4wGd3d34bPIRsfswg8//IBTp06Jn1dGTEwMBg0ahP/9v/83xo4dK+42oeBDjQbtC+ylYg2u6/2IIbsat2itKysX/q6vQ8ClJRg2azdS5OdRZIdZ3QbDhLfKvUBlli8O6g3FL793R/eZu+GVpvhs1+D2pqFYJ1k6oPqdPK08B4nxEbi2YTJGzTgM9p6+MvgmRn/3I7Y+a6hZaHMQ1kxaigch3KHZjagwGsLubcXQocsRwKot8MSS37/GjGOuskQkw2jY/8E/xh0E+4owAkzmofvkDYgSHmdd+nPojhqN/a6N35BH64dhpMENFDV6la3iAxaDFKhPh/mulRg/5Gf8/dd5sHkrd3bq4rBTfw62ceY9xLg8Fv4Ru40tU3/FsPXXxLnwsXfX4Lces+AgyV6f4oINk+fAuvFzxkeF0fDaRAdD5xgiRm40zBw8ALtsFA8yGhuGfYkBGx80PBzv07Pw24wj4o0vC7yMSWOXwFny7+Ujw7EYsvaB0N561NbWoFZpS53PkeLSchy+ZNEuRkP+q4tYqH8UEZz/7wiF3jMacgKvQWfWKjgmNEYpDLwD7dmrYCMOTarC8yNrsOnsC7krJ6M6MxjHtyzC1CVH4JUsnehTgft7FkLvqJ1kPYZCPN6ji6X7ZGtD1Jenw+boKsyaq4N7ktWE6iqScXX5GPSeugFm1k9gZWWJU1sXYsLUFTC1ckdKcRu/jQRBEARBEB+Awmiwe/5CfgaIT0wUF4hcumwZfv/9d1y9dk08z/6UzS8ohK6uLk6cPInMrCxkZGaKnXemiqoqVNfUovxdBXbu2t2C0XAHGdnvv/ls1mgoj4Oh7hAsvKJ6nnnASS30mLAFsr9Ei3Bhbjf8MOcsSmvyYXvtEDZsO43Lly/j8mkjzJ44A8dtwsS3xYwI6/2YMHQ8dpy/jEvGqzBt5hY4J9H6DB/ChxgNr169QklJiTg94t/+7d/EkQt6enri4o/LhM/mH//4R3z77bdwcXGRl5LRotGQ646lo4bB4J7SVO+6HFwzmoH5Z2VTJ4Lvb8Pgwb2ga3wFD14pXnSm4uiMQRg9bztMr5qKn6WrZ3diwJd/hraZfKQNl1qURdpgyeQe+Kb/JviLW9bl4+LqgVhuHiTLwihLhf3tY1g2fx5mz56DCf1+wG+TtoKNi698cxVTR0/BwzhJnzLPHcvGauP6K8loCR7qGA1Z7jCYMh7XQhSf+VxcWTMe47Y+huLpvb2+Cv2nrUOUECTtqTGG9hqOneev4Qr7Tplew7Zp3+K/x2xHW9dP/TCjQUFxOI7rDsOv/XThki60tCYK25bOhMH9xukFBaG2OLxyDrSXrIGh4XbojPwRPRadFh2dGLNVmKizAxGSYeflMfZYPWEm7kdze6KNqGM0xFhAR3cx7kcpOqnCh2rmGOidfNnwcLzOLkCvWSfEOTmhl3Xw6+/DsWTNWqxevVrUxN5f4LdZZ1XO2fkcYSMajly+h8Dw5qeJtNpoqM3Fvb2rYWTm1cSJbuR9o6E6yxubFszFyZeN0yKC7hpizrJDiBM+IjXCl2nr6rV4HCCZiFGXh8d7F2LcpktIem9KQx2CzYX/KekdQ8NHrDQC+/S0sMuKfZbqEGS+U/ifkgHcUpVGSLxLheuD67hy5TIunD+Hc+fOYof+TIwetwAHLz1GlGx/TIIgCIIgiI+KwmiwsXUQX4q9q6xCSlo6gkJDER0bJ3RChuLCpUvi31+V1TXIyskV/kbWxZixY7F+w0ZozZqFPXuMkZqeIaaXV1SKi4Mb7djVrNFw8OLd1hsNNUXwcnqEF2Gq/7rO8LeFxRMP5Ip/ilUiyPY2bti8EbdMLwh9jlNG24V+hSEMt++F9ev3X3DGOl6BEUs3OgXvFOmrKKItaGLqBNsZ5ciRI/j+++/x7//+7/jxxx/xxRdf4L//+79FQ0F5SkWLRkNpINZNGoKllyUdfEZdFs6uG4Flt0PlJ4CU13ex02gpev48AutOueId0nBk+gAMmqAHo4bP0k7sP3kRzrFqjH2peYt1I3pg7pkA4aAMl1cPxIo7wfK0PFgaT0fP4SvwLFj23Yi32IpRI9eDjeEp97sOvRnacJR6CnluWDp2EW54tjBGWk2jYdOUcTANUvSmsnFx1QSM3fyo4aVsiOkK9J++ETF1QPLj3Rj4S18s37YD29l9ELRr70FcehqIEn6HrUU0YzSIRGP98H5Yacq2FkmE4TItbLaUDx0peYtd84Zh8spzUKz79/biAgxfeEgcQRB9eyVmrTmIRMm/QWXRdlg9YRYs41r4IKtlNNzDIm1tmL9VVJCMQ9NHQveYY0Pn1/PMfPSafUI0PqJuL0Pv0Ytw8b4VHjx4IOqpvQtCojObvJX/3GEjGo5de4igiDj5GT7ZQVewetbm99brEKnLwf1ta6B/6VXDvatKeIY1eptgG6fKVa7Dy4vrseigtbjisEj9O7wy3Yxpiw8gKCULWRFO2LZ8Ec47yhYBjXi4B8s3XQbzuRRUJdhBf4YObnqno7ggDzk5OcjOzkJuQbG4bWp1ph92zp+GneaeyMrKhqfpbiw0MEFkmZBYlogDq6bA8G4ACovzxbI52dnIzimUryzblIj7WzBnsQlNnSAIgiAI4pOhMBqsn9riXWU18oWOYVFpGapr6/E2IgoDBw7C2fPnUSUcF5WUIie/ELb2DrC0egz/N4G4eOkyunXrhiNHj4kGA/tbMFfIY2S0U7XRkJqFI6YPkJnTSqOB6HRoajFINoXi5s2b6NOnjziy4S9/+QvWrVuHsrL3Vz9s0WhAKR5tm44hsw83WVehMtYaOkMmwiKSffbqUSfpIyTe34yff1qJ8Moq2G+ZiElbLeQpzVNbpfw5TsdJ/ZGYZ8Km6JThon5fLL0rnwpUFYPNY76GjlmS7Fho561V/fH3sZvAelbMaFg8fQGeK+YxMPLdsGTEPNz0VSwZqYJWGA1XAhW9KWY0jOcYDesRLnTSqgJMMX3sZFhJ2/OBtM1oqK9BQV5q0zlOhe7QHT8Vh56yN86JMNSeiPUW8p0gSrwxf9DvWPtA3vKqcGwa/DW+nGEibi3IjIaZq/Y32YqyIt4By0eOx93m+7gaNhqOicZHefAlDBs4HXeajJipRTl7knVlSAgPRXy2qmVAPx9Kyytw+aEDwuOaX+u3INYGp40v4S1vYdK6QjhfMcGpp6HyL0Idgu4YQ3/vdRU7QzDq8ObJORwyfyWZ1iBQkwXbc8ZYrauHpau24qJdqOz5Vafi5tbVMH7wVijZSG2qJw6tXYWVa9Zj/XqZ1qxcji0nzREnb2t+uBMObtKG3tLV2GR0Dv7Z8k9EeTrMDi2F3sp12CAvu06ItWbDGXhlKD/7OkQ6nMPugxZII7OcIAiCIIhPhMJosLK2QXHZO2TnFogqKCpFYEgYBg0ajLPnL6D0XRWycvORnVeAotJylFVUoaK6DhlZuZg/fz4Wai9CRnYu8oVymdl52G60Q6XRkJKVh4sP7JFT8P4bYDIaPi80ZTQosLOzE9dmYGuHhITwp9C0bDQI/cbIx1g28hfM2nVVjGlndw+7Fk/DEmMr2S4P9WWwO7oXlx89EdIccNFoMaavvoIUoZ9YHXYX08b0wcI918WyttaWuHnlKTJqpF14GR4ndLBx33nYinXY4cbuxRg9dyPcM1kPpAJ2h2eh+9D1eGT/GqnFubDcPRX9xq7AIyHvi0eXMOnv/y/+bchqsF5rmfcFaI2cAps0MbSMuiQcnz4AY5Ydw3PPIOSr6ivVRmD94J+w8IhbE6OBLQbZvft82WKQGS+hP6w/zii2cEEmTi0agH4r7zb0rwLOLsCPI5fgDfMi6jJxbdsU/DZuDe7YyK7P7PIVuEZmtPlFe9uMhrpSWB4ch77zNmPfvn2C9mLlnIlYaHwHyeINKYXt3vno030qdh4xQ1RJPuyPLULvEVOwR8h/5shuzOr2N3wx45g4FSHCdBHG6BghVtqrfJeE04v74bcpq3H0jguyVP37VOiHlQP+ieVNXYGmi0FG3saM6dNxLUTRC0zErlG9obXXruHGuR2dgm8n7IXMcyqAzbHVGDZwIozE69uDbftN4M62IijzxNSv/w0TT3iLOT9nysorcN3KEZEJLS2UoT6VGR4wmLcIp1wkC598EPVIenEK83S2NtnCiCAIgiAIoquhMBoeWFkjt6AEqZk5orLyCuEXEIRBAwfhzLkLKCguQ5pwPj0rF1GxCUhOz0J5VS1e+wZg2LBh2LbdSEzLzM0X07YZGqk0GtKy8nDV8oVQHxkNnzsfYjS4ubnJj5ry5s0bODrKFi/lwXaoaMloYNSnuWHnxqXiug9Mp2wCJZ3wGvjd2Y1l8rTlhmZNXnC/S3TBLn1Zmp7eaph581+yxr04i/XyGEwrDM4iVDKQpzLTH8eXL4PesqPwTBXuUXUy7uwVjoW8W09Yw9fjMS5esBJHXlQlecPc9BYilL42OW/uYv2ypVi13xTRjTv4N6UuGzYXT+Cea3yTl6zpb6xx+rQFUlgHtyQWjy9fgGfDlKESeNy/gPOPgxrWaEjzvIcTppZIbeiDF8H2xK6G61t77jEyPuAlahunTtQjLdgeF8+eFlcMZTK1dGsc5i5QmxeNp1fO49Q5S8SyF8D12XjxQDgW8t5zCkV6QgDcvENFR6U43gduvqEoVTKOChNfw/S8Cc5beSJXlaNTnY83L+3gn9R0iEluhBdeeATKXKziRHHl2vhCRQVlCHNzhNfbjIY1ArIjX8HO/a2QoqAWYc9MG67vhl24zJSoycUrW2t4RL2/su7nRtm7Ctx87KRZoyEvBm7uXsgsU9z5D6VeeNa+cPaLazr6gSAIgiAIoouhMBruWVohPTtfXD+BKSUzF96+b9CvXz8cPX4SOQXFSMnIQWRsInbt2YslekvFnzO1ZmHS5ClwdHZDqlCGmQxxSWnYum270FlUYTRk54kvptjUVGXIaPi8aKvRwHY0MTMzQ3p6uqi0tDRR7Pf8/HwhbmGT8wplZGTA3t4eJiYm8khEZ0KDazQQnxvMaLj95CWiEjVnNBAEQRAEQRDtg8JoML9niaS0LETHJ4uKEf6WCw6Pxu279/HSzRPxyRmISUhFREwCXF5549pNMxw8cgwXLpvC0+cN4pLThfQUsRwzI7Zs3Sa+leaRnp2Hm9aOyBU6ocqQ0fB50VajwdbWFrt378aZM2dEMeNAHbG8+/fvx40bN+SRiM4EGQ2ESpjRYG7jjOhE6eQhgiAIgiAIoiPCjAa2laXFAyskZeSKf8MpFJOUjoS0bMQlZzSeS0xHYnqOqLjkTCSmCb8LYudZeqyQNzI+BVvEEQ2qjIZ83H76EnlkNHz2tNVoqKurQ1VVlbjjBFNFRYVaYnnZZ6e29v31EoiODxkNhErYvskWtq6IFf7HRBAEQRAEQXRsWOfMwMAAe/YfwhN7R1g+sW2iR0/tYMmkdJ6dY2liuuT8Ixt7PHhsgyV6y2Bubi6vpSkZOfm488wF+YXvTygno+Hzoq1GA9E1IaOBUEn5u0o8sHNDbDIZDQRBEARBEB2d+vp62NjYYMmSJVixQh8r9Fd+sJYuWyaOkmCr//Ng21res3VBfhEZDZ87ZDQQrYGMBkIlzGiwdHBHfIoGN1QlCIIgCIIg2g1mNhQVFiIvLw/5GhCLU1amelv3rLwC8cWUKqPB1d2bOqafCcXFpWQ0EGpDRgOhkvKKSlg99xBXKyYIgiAIgiAIZdi2lpb2bsjnrNFQXFwCp5ceKC4pEefZ19TUkDqp2PPLys7BS2cPVFeLe/ERRLOQ0UCo5F1FJWxeeuGJ4yu4+QTB2SuARCKRSCQSiUQS5fI6CHYur/HI3g0FRe8bDaWlZXhsbQ8nZ3e4v3oNNw9vUicVe34Oz51h5/AStbV18idMEKoho4FQSU1NLRJTMxEYEYvA8BgEhceSSCQSiUQikUiiAkXFIDYpDZVVVfK/IBthuw2wef25efnIzSV1egnPkY1OIQh1IKOBIAiCIAiCIAiCIAiNQUYDQRAEQRAEQRAEQRAag4wGgiAIgiAIgiAIgiA0BhkNBEEQBEEQBEEQBEFoDDIaCIIgCIIgCIIgCILQGGQ0EARBEARBEARBEAShMchoIAiCIAiCIAiCIAhCY5DRQBAEQRAEQRAEQRCExiCjgSAIgiAIgiAIgiAIjUFGA0EQBEEQBEEQBEEQGoOMBkIlVVVVSEtLQ1JSEklNJScnIz8/X34HCYIgCIIgCIIguh5kNBAqiYiIwPr163Hs2DGcPn1a1KlTp0RJjz92GpOJicl76dLfP0Uak6GhIS5cuCC/gwRBEARBEARBEF0PMhoIlYSGhuLEiROIjIxEfHy8qJiYGFHs97i4OPH32NjYj56WkJDwXl72kx2z821NU66zNWlMz549w6VLl+R3kCAIgiAIgiAIoutBRgOhkpCQEPHtfHp6Oq5evQptbW1ERUWJxsP8+fNx+fJlFBQU4Pr16+IxOx8dHY2FCxfi/PnzYtrNmzfFtLdv34od8kWLFuHs2bNimpmZGebOnYuwsDAxTVdXVxwhwKYeWFhYYM6cOWIbEhMTsWTJEhw/flxMe/LkCXr27Ildu3ahsLAQ7u7umDJlCpycnJCRkYFNmzZh69atYh0eHh5i2vPnz5GZmYlt27aJ6SyOl5eXmGZnZ4esrCxs374dGzZsQF5eHnx9fcU0ZhxkZ2dj586dWLt2LXJzc+Hv7y+msXbk5OTA2NgYa9asEWO4urriypUr8jtIEARBEARBEATR9SCjgVAJ6+SfO3dOXHeAddTPnDkjGgnMbGDTBFgnnHXs7e3txWN2nr3hZ/lsbGzENFaOpTETgo0AYCYD66CzNEdHR9FYYFM0mNHA6nr8+LGY9vLlS5w8eRLh4eHiSAFmXDx69EhMY+bBli1bcPv2bdEECQgIwNGjR+Ht7Y2UlBTxPDM/2PoSgYGBYpqnpydSU1Nhbm6Oa9euiWnBwcFiGovH0u7evQtTU1Pxdzaag00ZYSYGy3vv3j3RWGHxmTHC0pipwNIePHiAGzduiG1h7SajgSAIgiAIgiCIrgwZDYRKFEYDm6bARhWwTrZiigDrjLPFD5lBwH6y47amsfiKNGZqtJTG2sI69Ypjlod1+Nl5lpe1k6m1aSyeNI3VqU4aaysbAcHuF41oIAiCIAiCIAiiq0NGA6ES1nG+ePGiOOJg9uzZuHPnjtgxZ53rTy3W2eed/9hiBgSbFjJt2jRx5AabVkFGA0EQBEEQBEEQXRkyGgiVMKOBrdHApkuwKQYvXrwQ3+rzOtxdVWxUA5suYm1tLU7dYFMtyGggCIIgCIIgCKIrQ0YDoRLF1AnWmWYLJLLpAmzqAK/D3VWlmErBFqVkC0OydSfIaCAIgiAIgiAIoitDRgOhEmY0sEUY2Rt7tusEe1vP1iPgdbi7qtj9YAtdHjhwAFZWVuJOFmQ0EARBEARBEATRlSGjgVCJdI2G8ePHizsrdJQ1GjqK2BoNbGcMPT090Yzx8fEho4EgCIIgCIIgiC4NGQ2EShRTJ1iHmm3pyLav7CiLMHY0sfvCTAfa3pIgCIIgCIIgiK4OGQ2EShRGg6IT3X4mQwISk1KRkZ2N7AZlIjkxHnFCekJiolA3r9ynF7snbJ0GNpKB7T7h4uJCRgNBEARBEARBEF0aMhoIlUinTsydOxd3795tl6kTyalpiA2xxc5Z0zBx4kRRU2ZthLVfDFKSEhEvdOSZ4cAr+6lF21sSBEEQBEEQBEE0hYwGQiXMaFBsb3no0CE8f/5c49tbJqZmIt7lCiaN7ovle27g2bNnsH50H/tXr4CZRxSy0l/j0JwpML7mgcSU1A43skGxvaViIUja3pIgCIIgCIIgiK4OGQ2EShRTJ9pve8skZObF4dbqkfh58ib4JxcgPycLGRkZSEkS0pOyUFQSiB1DemDzFT/h92KkJycglm0pmZSK7LwCFBQw5SM7IwUJcbLtJhOT05GVnSW0Nw258jyFuVlIYVMxhDz8trRNtL0lQRAEQRAEQRBEU8hoIFTCjAbF9pZsxwkPDw8Nb2+ZiIy8FDzYNgG/9VgI+6gs5GSlIzkpEclpGYj1f46jG6eg+1//hN8GTsaCdcaw9IpCbm4ekkNf4vjGBZg/f76gZThi4Yn0nAykpCQj1PUBzpy5hJcvLGGwYqGYZ+HOC/CJSkVmSiKnHW2XYntLNuLj8ePHtL0lQRAEQRAEQRBdHjIaCJUo1mhgaxD069cPly9fRnp6OrfD3VYlJmUiKeIJVvT4Ad90G4y999wRk5CEzMxMxL/1h83dfZj28z8xaYkxLpk/hnd4IuL972FB36GYutwI1+/ewrl9KzHgm/7YcuklMsoL8Oa+MUb/4/+gh94enLx0HXevHsbkgd3QS+80QuJSkJKouUUtFdtbLlmyBKampvD19SWjgSAIgiAIgiCILg0ZDYRKFFMnWIf6zZs34qKQGt95Ik7orLMFJoNf4eCSgej2y9f4bsRCXHOLQXZmLgoK/LFrVD9sM/VBflERstNicHP7RAzUPobAlBxxWkRxaRost0/H7wN04RCXi3CbAxj83W8wuOuHvOIiFBYVI8HhCLr/2B8HrYORlpqMBF5bPlBsdANtb0kQBEEQBEEQRFeHjAZCJdI1GtgaBGzHCc2u0aBQApJSUpCZk49oL0sYTPoFfxykDRv/dORkemDrsN7YcMYZyRk5SIl9iXVDfsPSCy+RnZEqrsuQklWI8KfG6NdrAM64xSH0yX5MnTgT994I5VMTEZ+cibTgB9Dq9i3Wmr4W15rQlNGg2N7Sz89PHNlA21sSBEEQBEEQBNHVIaOBUIli6gRbg0BPTw8PHjwQO+m8DnebFcdMhmQksW0shePkjHwUxL+E9oAvMfmwIwpyvLB1aG8YnHUV0rKREueC9UN/g975l8jOTBONhtTsQrx9sgd9ewzAWfd4mdEwYQYsmFGRmoD4lEykBz/ArB5DYHzfX7iGFI0ZDYrtLadPnw4TExPa3pIgCIIgCIIgiC4PGQ2ESpjRwLa3jIqKgoGBAZ48eaJhoyEBCYkxCAsIQ2xCOvIKC1BYVIKsmOdYM/w3LLnogvxsb2we0h2rz3mgsKQEOekxOL+6H3rP2AOf5BwUFxejtCQJZhsnoueIlXBOzEOEzUH0/ccPWHfbF4XvylFWUohXV/Xx089aMPOJFq5BcwtaKra3fPjwIV69ekXbWxIEQRAEQRAE0eUho4FQiXTqRHZ2tvj2XrNTJ5KRnR8MkwULMV1rLQ6dOo7jJ09h5ezRGD9rO5yjU5CdGYOba4fjv/vPxKGzt+AWmoik4EdYMmAgRsxYjZPnTbB/8yIMGjoTZ54EIKc4F4HWRzDsH39H79nLcOD4WVzYuxrD+nfHrMNWiElKRZIG15mQbm+Zm5tL21sSBEEQBEEQBNHlIaOBUAkzGtj2lrGxsbC2thbXIdD09pap6TFwvnMWG1fpY8Xy5VguaOUuU7yOTUNGahISk1IR72eDnRtWY8WmA3jymm1vmYPEYEecNNAX869YsxXXXSNQkJWG1Ix0+FnswcwZ82Fy7SJ2rVuBZSv0cfSWAxIy8pCSyGtH26XY3vLYsWPiiA9PT08yGgiCIAiCIAiC6NKQ0UCoRLFGA1vkcOjQobh69arGt7eMi0tASmY2CgoLxVEBovKyxC0o4+KEPGzEQHI68tn5/BykJSUgNjYOiclpyCmQ5y/IR1ZakhgrNTMdfvf2YPK4qbAILkB1ebFstEFWOhLj4xDHacOHSLG9pa6urmgw0PaWBEEQBEEQBEF0dchoIFSimDrBOtSsA80WPdT49pYaVQJSszLgY26IkYNH47p3imzXCW5ezYpNoWBTTGh7S4IgCIIgCIIgujpkNBAqka7RUFRUJI5maJ/tLTWlBCSnpiDU2QJHDx2DY0gS0pLb1xhRbG/55s0bRERE0PaWBEEQBEEQBEF0echoIFSimDrB1iBgayFYWlpqfntLTYuNLEhOQ1Y2m34Rr/GpEspSbG85c+ZMnDlzhra3JAiCIAiCIAiiy0NGA6ESZjSw7S2Z0bBx40bY2dkhLS1N7GCnpKQ07ELB3uozA0IxraKlNCZpGhsx0do0NrqCHbM0aV6WzupuTRpb0JGlsZ/suKU0JkUay8eOHz9+DA8PD9rekiAIgiAIgiCILg8ZDYRKpFMnWGfbx8cHUVFRYueaTRUIDAwUO9vR0dF4/fp1Q1pAQMB7acysUKQxsbSYmJgmaayMIo3tdKFIY/WzNFYn+52lsd0d2DHr5LM4bA0JtigjS2ftZiMLWkpjcRRrT7C00NBQtdPYDhxhYWFiGvvJ4jIDg9ZoIAiCIAiCIAiiq0NGA6EShdGQkZGBZ8+eYdiwYeJbe2YELFy4ENu3b0dpaSlsbW3FXSnc3NzEzraOjg42b94sptnb24tpzs7O4miIJUuWwMDAACUlJXB0dBTT2E+WtmzZMqxfvx7FxcVifpbm4OAgjl7Q19fHqlWrxLUivL298c0334g7PbARCswQGDNmDMzNzZGfn4/9+/dj3rx5ognAzIixY8fi5s2bKCgowOHDhzF37lzRMGDmxbhx43Dt2jUxjW1ROWvWLNFUYdc+YcIE0TRgaSdPnhSnRzDjgpkOEydOFEd7sDQ2ZWLGjBmiKcLuARkNBEEQBEEQBEF0ZchoIFSiMBqYCRAUFAQLCwuxM80699bW1uLb++zsbDHt7t274mKIzGh48uSJaB6wtODg4IY0Nt3g6dOnePHiBbKyssQOO0tjowZYmo2NDZ4/fy6msVECLI39ZGnM6GCmBUtjsUxNTcVYrD42auLevXviKIPMzEy4urqK7WPtZMbA/fv3RTOCpTEjgE1zYGlsZAJLYyM1WBqb9mBlZSUaKcxsYGlsVAVLYwbLo0ePRPOCmRQPHjyAl5eXmMZGV7A0Vo7VTUYDQRAEQRAEQRBdGTIaCJUwo4GNPmCdajZqwcnJSezcs048MwtYx591zJlBoJzGRiKom8Z+sjRmMvDSmDHA0pjY7ywWG/HAYrFy7JjlZWYES2ftUqQpTA/W/pbS2BoUzaWx4+bSWFuPHz+OU6dOye8gQRAEQRAEQRBE14OMBkIlbPQAm47ARhaw0QyklnX79m1xVANBEARBEARBEERXhYwGgiAIgiAIgiAIgiA0BhkNBEEQBEEQBEEQBEFoDDIaCIIgCIIgCIIgCILQGGQ0EARBEARBEARBEAShMchoIAiCIAiCIAiCIAhCY5DRQBAEQRAEQRAEQRCExiCjgSAIgiAIgiAIgiAIjUFGA0EQBEEQBEEQBEEQGoOMBoIgCIIgCIIgCIIgNAYZDQRBEARBEARBEARBaAwyGgiCIAiCIAiCIAiC0BhtMhpq6+rg5x8ED09feL32h5c3iUQikUgkEolEIpFIpM9CQj/f3eM1wsOj5S5A62iT0VBdXY1ndo4IDglHckoakpJTSSQSiUQikUgkEolEIn0GYv18L28/uLh6yl2A1tEmo6GyskqssLS0TH6GIAiCIAiCIAiCIIjPhfS0DLzy8pUftY4PMhqKi0vkZwiCIAiCIAiCIAiC+FxITU0no4EgCIIgCIIgCIIgCM1ARgNBEBqgFpkxgQiNyUSN/AxBEARBEARBEF2TDmc0JAVYITS7Vn6kRGEKfJ+FoFR+qEzKayuYW7qisF5+glGXDdeXoSiolp4EqpO9cHGXIQwNd8DU8i2apsqpLYW79RVY+2aKh1H2J4T8Qhmjnbjrmyaea6QWAbYm2C6kb997FAE58tNysgJtYczKGhrhvPkbVMvPK5MTYoOjN6wQXyw/wSHLxxIHWaztRrj01BdV8vPKpHha49B2Vqchdpy4jbBCeYIStRmRCPAOgjrWT0JIEPwj8uRHcvICcHzfdrGeXSY2SFd1cQLZYbY4dtAYRuK9EPIfvYCYhuU66pDq9whHjpojOKNSfk6JsnhYXj+K2x7x/Gf2HoWwP75P9twE7TlyGxEFdfI09ckIsMV1c3fky48JZYpwbUlPjNC7AqVPB0EQBEEQBEEQXYwOYzTUVmXi3vq56P79F7gSotwRrEVp6EOM6/E7ho87D6U+vIyaTJxcOgQTtj+RGxF1qEhwwsZZ3fC3YYeQIPEuqpPcsX7uBCzbcRGXLx/AlO59scs86L2Oa0WqHRZ0+w2nXuch2v4Q5q5cKuS/jMu7F+Kb/qNwyjVFnrMOfre2Y+KkJTAR0o/rj0CvOQbwzpalZvhYYt3s5djHyp7fjlH/3QMGlz3fNwjqMnBk2P8Pf/j7cNgkyc8pke51Cxv1FuDAeSGWiSGG9/4Sq2/7vB+rNB5Prx3E9uNCvsvnsWbqAHw36zDe5kuusq4GGX4WmPLL15ix7ipy5ad51FWXwvXqEnz/xTDsfRQnPyuQ7Yu9S1Zi2YGzQj1nMb9Pf4xefB2pKl5re56cjj/+ZZTsXgjavWggfpm/E16il1MHlyPj8Ic//AHTjjuCZzVE392KfxXSf9llK+Rugbw32LNhMhbqH5E9t8uXsH62Fu5HNOPiqMD79Bz8s8dmRMiPWyLJ9RpOHTJHqgrPrKNRn+iCnYbXEFTS1vEIxbilPxDjV14nM4YgCIIgCIIgujgdwmjI8r6C2b99J3Ri/wv/+udfYS7tzdXn4ubGufj55x/w7//rf6PvvJvgvZgvj7CG9uRpuBvDOtI1cD2/FN/8+Cv+8af/iT+POwaFJQChS+58cin6L7qCIvmZ0GtL0bvfYvz/27vzoKjScw3gU7dSdXNzM6lkUkkmyUwmM86M4w6IoGyKgIqyqSwCguKGIqC4gSiojAsq4AKiIIKKIm4MAgKKAuLCIgiiiKgsiiAooA4Csj63+3QDDbSzJNzSic/P6irPd5Y+G398T7/nO1eeyUYNHbh92AXjp+1AlWiqMOM8Cio7ayk6sH+RAkbODZWEGi/T4aiqAd/UBmEuWovhYjAQZn7pQmf4eeEVJN/o/p03Y4clRqotQG6vF2+8TN2EAR/+Gv+rYIrEcmljDy14WHgVGbnd1RSZfsYYMGkp7nQeTKfWBtS/lumql5/G+K+0sPG8dMMdVQiaOQUKw77BR//za0xeHvnGioa20hgYjVfBsIF/xX//VgmbZHeu+BbOZRSg81A6ru+BwlfaCMuX/1aRyztsoTLJB3XSadRewwzNQVh8VBJepPo54E+/+xAfmy1DztNeUUL7I+yYp4/f/u4PMPVP+JES/Q5kB8zCV7oLkN8obRJrfoGGlp/f+29reoXv65t+PNyQKo5whOkEV8i9jO+iB0egMnwx0v7lYKQNRxzUoe/AoIGIiIiI6H33TgQNjy6HwscrFIVP0rFCXQuhuTLdufbHCN/siwPJd5EZ4grNGcFyS7OT/WZCbd5hSYe3ox7nD3ljS9RdFCeth4blZtyT9rk76guxYpoyHE+VSBrEyqJhpKKMzUmSRyQEbSXYaKgJ95hSaUNP2QGzoaDpKQQY1dGroTzWDbe6cooOpGyZgRGGniiV03GrvrQV44dMQdRDaYNYQwE2ORjD1dMZE5XNcaY7GflBdSnrMFLdGPEVoi9/XYm0+Fhkl/ZOHURaczBXbzrWxUtLJdoe4vC6LTiTdQ8JWxxhvTC0u4PY8T3yUs7i4s1yocqjsSgW7lvCUPDgOlbOmQ7X08WS5eR5eRm2owZiXZz8+ogrO20xUudbdJ/95zjoYAeTdReEqaRNczHW0ByTNHWxMuK20NapPMEPU60mw1xHB9Ye3wlBQ2PFDSRGX8Cjht4RQBtSNhhBadwqmZBJjuqb2L/XH/7+/ggKixNtB2ipLsCl3NuofnBV1B6ClPxqPK+6LfpDuSu5v9prcDP1Ciqf1SEjLlhYd19ELMql91jJ1aNYbTMWI4fqYc2uPYjMeEN5CpqRExkmrB8YfA4V0uSkPPM8Ik9m4UXn/dRahXMxkcgokyYmbRU4dShQss9ns/tUftQWRGOvaJ6/fwAOxOSgobUJ9zJTcSn/cXdQ0lqH7IuJKKiuR83dqwhzm4kv/zkWi7134mhiRlcI9yT/HPaIt7UnFMmd39+psRRxIQHCfhyPFS3nrAdjBg1ERERERO+9d2uMhpcXsWR0r6BBRubuZVCXEzR01OZhqaEetlwS1x709DB2DcbIBA2vq2JgN1wdQTdkumcN2XAYZ4TlkQXSBqAqxQvjp7ogv0bevrQgYul4qM4/KHQ80/wmQ9VhV1fnTOzO8WUw0rFHdq++mVjufgcoajnhRtdgE404v3E+LDyOITtlF/QVTRAtG0L8gNwAW4yasAS3m0QTj6Og+fGHmBV8UzKzSyOuBi3HhLmbkfes90MWbUj0Wggr2aCh/Q4clP6IEY6RorkyGvKxbNbUHwwamvP3Q3uwLg7dkVZ39CIOGpT1NqOrJqO1GGunqsPG/4YweX69FcbM80XkNnuMM9qMh52d7fZ6BLvoYerOw9hvNxFTXU8LzQ9PzsUnvxqCwyXiE9BTY3ki7L76AhoWyxBf3Hckixe3TmKBsSK056zDunXrsMjcFiceAXUXPDFUewjmuW4VtW9DXOZjXAuywddKK1AkXrEtEy5ffwKDBR7w2LpZWNdabwiUHPfivuiaFiYFYKGJKoZ+rQEHjw3Yl3xP+L4eOqpw0mcB9CfMFta3n6iFafP98aAVKEneCeWPh8PnkqR2Jy9gHoapT0f8PdE5rc3BLgcj6NksF63nCUNtXczaloTOs10UEwBTRUXYrhUf0wqY2frh8bN78DYfA81lp7pDifoMzFL4FC4n76EqLwl+C43x2ScqmLlyLQJOJAsVJ7fjvDHNYCqcRPu3znk6FMY5IPqO5O+2uSoDayxMYGq3Uth/94VWGP71p5i86qjciiMiIiIiInp/vFNBQ0vdBTi/MWhoQ/ouF7lBw+N4N6gZbcB9OaMilsS49wgamqrOwmm0DiLvSqYFrYVYaaCPOXszhF/wRT1qhM/RgrX3uZ4dbUEzsg87QkPBEEcfSJKCS/4m0Fwb1qOUvyzRCwaq1rjY64f9iqtB0FMdi7XRD7p+XX6S5gdTYztcetqCF+m+0Blu/JOChkfJgdAfoYlvo+9JttVchzu5OSh5Kul2tpdfgvt8AxgYGMFikTcSsnoPYCnWhPgN9j2DBjSi7PYN3C6rlZ4PqZe5cLF9c9DwuuISHIyGwsgz/o0Ddl7dbYvh6suQVlKCkpJinPKaCU2TRbhaI754LUjYMANKlntQ+eoG5iqMwroLlcJ6jXePY4rGOJysqMGJWRowXHVaGFCzua4Ueddvoea1/HCqtvAaVkz6K75UUsMEJx/c6kyDXhfBy3g4TNYe63rsQ3z+not242nKtxj56ZdYf7H7TssKsIPiWA/cF0+058B+0BfQcj3Z/QhIZTwMlJSxNLxQmHwc5YrZ070gUyPTw5PkjdBUM0KMdBwP4Drshw/HstOSGzNrnx00DbYgtzAJdlOM4XtBMjJJuu8cjJ4kU6VREAqlYfqIuNuOjorzsFAajRWhedKZolv7xUu0Npdh20wd6K850x00vMrGIs1BWCF9ZAWPTkFXYxUyJFOia50Jx9HKcDnVfSMenq+H0fYHUS+6KVICbKBi5S88ViT4/gbmaPwFKkvD8fNHwCAiIiIiov8kv/ygoeM5QhZMhl3gRTmhgLygIQ4LlMbiYL7M0k15cNY1wdKj+cJk6+M4WOlYIiiz17CTLU8QttwKI74ZA9+E7gERU3cYQs1lb3eHVaRI1NGcOm4eMrp63K+RHWKPIUoKMN+Z0rWvLeVXsXCaLralSo6qOWc3JiqZIflNPXVBIy6GLsWAz0bDxfei3EETBS2vUPW4DGVlJUg96gU1RROEpFf1DA/kBg1v8ANBQ2XaAcwY9Q+oL92N4r7FBV2yg23x5z8PhI6hIQwNDWBq6Y2c+s7XVDQJQYOiuY/wq/gZNy2MnRcsagUy/Cyh53BM9P8GhMxQh9Gq030HwHyT1hcovRSCmeqf42PzjSgXbbA51x9qgyYiUlxC0EtVkifG6FggRaZAJitwDpQ6g4bmDCxXU8OuK7IHWg1fq7HQXXVGmLoT7gxLQzfc6bt5kUZELZsIzcnOOBoTg6ioKETHHoaV4l+g5H5WskjrYxxaPgEjVSbBfXeKJLhpvYc1huOgt9AHMTHfCevFRmyCyscfYW1KLe4fccRg7cW41ef8P4a3pTYm9gkaBmPlMel9fDMMY0c74VyN5Fo8S9qIod8YYXtUDKJF3xMVHYMts5TxpeZiFLyoxmZjFbjGyY5A0YijThqYxMEgiYiIiIjee7/4oKH1bijG6tgg+g29295BQ1ttCmyUFeGaUCFpEKtMhKmqCjzjJG1ZO+wxde7Wnm9OqMnD2nk6+JvKYsQW9Nz363stMUJ3jaQTKujA1R22GDlpJe6L+22tTxDjPg0jR6hjxwXZ5/XrEeWoig9+PxyL1nnB08MDS2108M+/DIS5sx/S7sspQm96jDObjfDHUUbY1mNbP+YlgqyUMWlJRK9qg383aGhB7jFvaP/pGzgFJryxkqGT8OiE7ibIL9iQBA0KZtuFa9yQvQfjVCfjcHoylonui93XxFFOPYLM1X5e0NCp7ios1L/A3BOVaLjmjdET5/QIEzpVnfOA+pzFuClzo/UOGtw0NRCcKfsez0r4WBvDxCtJmCo47Awrw9UolBs0fI/wxboYqqiPeQ72sLcXfxbCcYkbAlM6z207snym4MPfDIJX573alI/lk0diuJ4lHBZK11vogCUr1yKt8hWyROd2gpUXHvb586nGnrkmMPeI7Q4aXt+E09ihvYIGZ5yvlRzT4xg3/POz0bB0XCTdP3s4ODpja3giql8WYNU4ZXiek1SbSDQgwmkcDBaFMGggIiIiInrP/cKDhleI85yN6a4hqJPboesbNIgH1tthqw4dlzNdVQXlMWugpjIVCU9E3/v9bSybqQfPk8Uyv/w3I2WTCT4xdsNt2bIFqZfZQdAerIUjXUnDM2ybORIT18YLj1OUxayHwmB9RBX3rj1oQkHyaUQcOYSgwD3Ys2cPNi0xxsC/D4f9t+HIedj3HBUdc4XqKH1EFss74A50dIg+4n/tvc9hLXaaKoo66Kd6VF68KWgQttOz9EFu0PC6+DSMv1KHu/SRgR8jGQxyI+QPsdkZNGwTddtFmkvhs9AUA776HNqLtkNy+p5jX4+gQXLM8vRtrsNuq5GwDMkHquKhrzEJvpe6nl0QtIvWEYKG2YuQK/PYS4+goTUL9sOHYfZ+SQWMoO4K7MaPwfLjkmEu88MWw9xgNeQ/ZNKBaz4W0Jy57Y2PGVRf9oORphU2bXaG9kRrSF4WUocA2wkw33BOWKa3igQPjNUzQ+KjngfeIbrikUv0YWgf0vVmkZa7RzB+0EdYekIaVuWFQH2UU1clTVNuKHRHGiFB3oAL7c+wc44CTLYkSxtEXt+Hm/6foOF8uMdYJURERERE9P55t4KG2gTMG6yAvdnyg4bLW+0xzMBf1I2Xen4NC6cZ4Nuzsr+s9vTgtAuGGHqgUKaPX5G6G+qDJmLTyXRkpsdg0TQtLN2XJYQCT1J8YDjWGldke4BNubBXUsLsbWdQkJeNzMxMyUf8ZgLx2w7aXyDUXg06pp64JGo/v2s5tIwckVol3uJr7Fv0DYYtCMCN/Fxkda6bmYfymr5VGPXpWzHmi0nyO3h4Ah8LXaja7Ebuzdzu/cjMQvmLNqAyCTZao+B5tgTPCjJwYMtOJEmXOeGzEKrjFyHxQe/RKRtxxm0mjGz2dgc47cXwMlXD1I3xXWGM4EU27KfrwelYd+3GDX8LKGnPQkzOTWR37c91FJTVdr/hQEaq93R8qeKO7gdPZDUixs0An+t7db0WsuqCNz774Few7xqo8xl2TR4Kbcdjog606JDPeUB7mCHOlPeub2hAgucmbNwcgYzOc7B9AfR15uJCtei6dLzGBT9raGlOxp4EyfzvDgThSi3wNMEVw8xskS3z5My1HRYYoLgCwggKHXlYPOCPGKBlhZOp4nUvw2++KpQtnJFdJznqp5f8oKY6DlujruF2ed+ud0tZPEwnKWKKW5j0nGXiVPBR3G1qRk1xIqzVhsFpv3gQydc4PE8DalabUCy6xlXJW2Gg+A2WBSdK1zuDfeHivyfxIZUjcJ4R1HSXIUaYdxEH9kWjorUVD+LWQeX3ilh7PA2ZWVkIcjHCb/7rAzh1jsHwJAU2KoPgEHgBN++Xo6m1BvsXKkLD2AVnhG1dxYnvTiEhVVJdURznhYGDx8HtYLJo3nUkhq7HgA8/gLLTQQ4GSURERET0nnungoa2V/kIXe2B5FJ5v1C3o+jsQazZkST9VbYDJdFbYGDmjOtdI/L1VX09Au47olApW+UuUhgbiLmm5jA3t4Z7yDVph/olTrtZwMQ1Hj0igNYyHHB3hOWMGaLlxetIPw7uSCqRdnAbHiHMYyrMRO0zrN2Q8rDzC9uRdsAB5jMsMUN2XXMnRFzp++LF2lvfYf2yrciS+3bIFzh/wEPOtqxwLK8BeJ6Lbx3mIuhyNTqaHyPMa5awP8IyzuuRJm8sSLTgxokg7AxK7n7soaMCYWvssfpges+woLEUB/234UhG9/MGpUn7sNjCAjMsZPfHGmsOpAuDNfZWGOePVRtOoWcdQacW5J7YgRW+0d2DLNbkYEdoCDIfd0Ye3+O87xp4h0uGLazJDIaTzSpcftr729qQE74NNlOnd+2X6bytuNb5DkpBG7KPr8U0M8l8W/dwiN8S+urWCawJCEapzC16P3EPVnpGSgZ3bM7EWp2x2BAYAa854nXNYOfkg9uyz420PcGR7Y6YLrrHXI/nSht7aqu8ijWzLLv2z+PYdbR1tOJyiAdMV4VBnIeINRVGwdneGpF5ki94lhWKudZm0vXm4tClsu7qjY4afOc1H6bCPDOsCE2WvpGiCcm+q2FuKlpvxnIcjEtCyOaVOHql+1rmRLhg+nQzLPU7Lrk+7U9w3KdzW+awdw3Cva7XiLYjN2oHLETLm5vbYN3+eMQeWA/vkIs/+vgMERERERH9Z3ungoaf5VUh3I21MM0nS9rw73uVdwi6qto4VCSvi0wk1ZSOVepqCMzoUe9BREREREREIr/coKG5Fvk5mSh5IW+sgn9N89MHuHr9Hurl1fwTdWq6AmeFEfBNlTNgBxERERER0Xvulxs0EL0tzbcQYL8AJ/N6j3dBREREREREDBqIiIiIiIiIqN8waCAiIiIiIiKifsOggYiIiIiIiIj6DYMGIiIiIiIiIuo3v4yg4eVdHA48hetVHHyPiIiIiIiI6F327gQNbY2ovHQIVjNMYGIi+UwxmYqIgg6gKhbjvjHFntwa6cI9tZVfxEobW5y41SxtISIiIiIiIqK34d0IGlqf4dAqC4xTtUd45i0UFRUJn4Sw1QjPbwGqz8F4jB0O3KqVrtBT28NEOJhMxZFcBg1EREREREREb9M7EDQ0IyNwMZQnOiK9StrUW8VZGI+2Q1hhvbSBiIiIiIiIiN5FbzFokIQGbXVZWD5lDFZHPRam5aqIxzQte+xLTkaIqw1mzrTGvA2nUNUhmd1WnY3d6zfgYnG7aKoRl4/44EhiKk7uXiIsu3B5JGrQgNSQjaLpmbBetAqJxT2rH8pTDmCJ9UxhefedsXgubSciIiIiIiKin+6tBw1P0/wwYcxExFYIk/JVXYD+iL/hC/X5OJ6UguTkozBXGgWzbakQRwtt9yKg88UA+FxpE029wr5p/8BvB6hh+3dpomUPYvrAzzFw1DSsXx8umk5GgONYDDZ1xc2XkqTiXvRmqCkZw+9ksmh+BBboKcNmewJeSYMMIiIiIiIiIvpp3nrQUHHuW2iM0kfCDwUNlecwWXkwFh+9I20Abu6dg8HqrigSZwulp2GiNBIBGeKJegTbKkNj/n50PpxxZesEfDTYEKnSsSTbbx+EmooG9ua1Ai0l2Gg5DguCiiQzRZpS1kNByxTnH4q3R0REREREREQ/1VsPGmqy/KE3VAeRD36gfEAYo2EBDhe9lDaImqI9MXi0HdIbRBMPZYOGlziwUBMOB7OF5cQKwpZgqO5KFEhzg8b8cIzX0EbQrRbg2VlYfPkpJtq5YOmSJViyZCkWm6vjD5/p4Ngdvk6TiIiIiIiI6Od464NBttXlwnH8YMwL7a5W6EM6GKTsWycenV6DIWrzkCnOAnoHDfYaWLA/XVhOLD/EEYPHL0Pn2y8bbh6CtsZ4BN9qBWrPwUZpIOZuOYxjR8MRHh6OoyeikZB2B7VN4gcziIiIiIiIiOineutBA9CO64cWY4iyAfZmPZO2SX1/H5Uv2oDK+P+XoGFvbivQWoZ1FsNg4ntdMrNTx2th/AciIiIiIiIi+unegaBB7Dmi/V0wRnca3DdswZYt4s9mzNbXQ1hRE1Adh/GDzBCYJx1kQaTsmAv+PmQGroofnSg9JjMY5AsEWg+Dlf9lYTmx3AA7/E3ZHnnSoOFVTjCUhinDN/2VMF2aHAxtVR3MWrZR+O71rmsQcv4GnnMwSCIiIiIiIqKf5R0JGiRqsk7Db6s3vL0lH//9aRBqHJrKkRSThqK618JyYq9Ks3E69jKeirOF+lIkRUfjzlNxMtCCoiuxuHK3WlhOrK7oGk7FZ6BOWqLQWnsfZ2PjcedZi6RB5OWtiwjcvlX43q3Bp1FYy5SBiIiIiIiI6Od6p4IGIiIiIiIiIvplY9BARERERERERP2GQQMRERERERER9RsGDURERERERETUbxg0EBEREREREVG/YdBARERERERERP2GQQMRERERERER9RsGDURERERERETUbxg0EBEREREREVG/YdBARERERERERP2GQQMRERERERER9RsGDURERERERETUbxg0EBEREREREVG/YdBARERERERERP2GQQMRERERERER9RsGDURERERERETUbxg0EBEREREREVG/YdBARERERERERP2GQQMRERERERER9RsGDURERERERETUbxg0EBEREREREVG/YdBARERERERERP3mXw8agP8D4iTvfOQbt24AAAAASUVORK5CYII=;" vertex="1" parent="1">
          <mxGeometry x="-112" y="-54" width="1046.11" height="268" as="geometry" />
        </mxCell>
      </root>
    </mxGraphModel>
  </diagram>
</mxfile>
